%TF.GenerationSoftware,KiCad,Pcbnew,9.0.8+dfsg-1*%
%TF.CreationDate,2026-08-15T20:12:36-07:00*%
%TF.ProjectId,pokeboy-hw,706f6b65-626f-4792-9d68-772e6b696361,rev?*%
%TF.SameCoordinates,Original*%
%TF.FileFunction,Legend,Bot*%
%TF.FilePolarity,Positive*%
%FSLAX46Y46*%
G04 Gerber Fmt 4.6, Leading zero omitted, Abs format (unit mm)*
G04 Created by KiCad (PCBNEW 9.0.8+dfsg-1) date 2026-08-15 20:12:36*
%MOMM*%
%LPD*%
G01*
G04 APERTURE LIST*
%ADD10C,0.130000*%
%ADD11C,0.160000*%
G04 APERTURE END LIST*
D10*
X48285714Y-114063335D02*
X48209524Y-114063335D01*
X48209524Y-114063335D02*
X48133333Y-114101430D01*
X48133333Y-114101430D02*
X48095238Y-114139525D01*
X48095238Y-114139525D02*
X48057143Y-114215716D01*
X48057143Y-114215716D02*
X48019048Y-114368097D01*
X48019048Y-114368097D02*
X48019048Y-114558573D01*
X48019048Y-114558573D02*
X48057143Y-114710954D01*
X48057143Y-114710954D02*
X48095238Y-114787144D01*
X48095238Y-114787144D02*
X48133333Y-114825240D01*
X48133333Y-114825240D02*
X48209524Y-114863335D01*
X48209524Y-114863335D02*
X48285714Y-114863335D01*
X48285714Y-114863335D02*
X48361905Y-114825240D01*
X48361905Y-114825240D02*
X48400000Y-114787144D01*
X48400000Y-114787144D02*
X48438095Y-114710954D01*
X48438095Y-114710954D02*
X48476191Y-114558573D01*
X48476191Y-114558573D02*
X48476191Y-114368097D01*
X48476191Y-114368097D02*
X48438095Y-114215716D01*
X48438095Y-114215716D02*
X48400000Y-114139525D01*
X48400000Y-114139525D02*
X48361905Y-114101430D01*
X48361905Y-114101430D02*
X48285714Y-114063335D01*
X47676190Y-114787144D02*
X47638095Y-114825240D01*
X47638095Y-114825240D02*
X47676190Y-114863335D01*
X47676190Y-114863335D02*
X47714286Y-114825240D01*
X47714286Y-114825240D02*
X47676190Y-114787144D01*
X47676190Y-114787144D02*
X47676190Y-114863335D01*
X47180953Y-114406192D02*
X47257143Y-114368097D01*
X47257143Y-114368097D02*
X47295238Y-114330001D01*
X47295238Y-114330001D02*
X47333334Y-114253811D01*
X47333334Y-114253811D02*
X47333334Y-114215716D01*
X47333334Y-114215716D02*
X47295238Y-114139525D01*
X47295238Y-114139525D02*
X47257143Y-114101430D01*
X47257143Y-114101430D02*
X47180953Y-114063335D01*
X47180953Y-114063335D02*
X47028572Y-114063335D01*
X47028572Y-114063335D02*
X46952381Y-114101430D01*
X46952381Y-114101430D02*
X46914286Y-114139525D01*
X46914286Y-114139525D02*
X46876191Y-114215716D01*
X46876191Y-114215716D02*
X46876191Y-114253811D01*
X46876191Y-114253811D02*
X46914286Y-114330001D01*
X46914286Y-114330001D02*
X46952381Y-114368097D01*
X46952381Y-114368097D02*
X47028572Y-114406192D01*
X47028572Y-114406192D02*
X47180953Y-114406192D01*
X47180953Y-114406192D02*
X47257143Y-114444287D01*
X47257143Y-114444287D02*
X47295238Y-114482382D01*
X47295238Y-114482382D02*
X47333334Y-114558573D01*
X47333334Y-114558573D02*
X47333334Y-114710954D01*
X47333334Y-114710954D02*
X47295238Y-114787144D01*
X47295238Y-114787144D02*
X47257143Y-114825240D01*
X47257143Y-114825240D02*
X47180953Y-114863335D01*
X47180953Y-114863335D02*
X47028572Y-114863335D01*
X47028572Y-114863335D02*
X46952381Y-114825240D01*
X46952381Y-114825240D02*
X46914286Y-114787144D01*
X46914286Y-114787144D02*
X46876191Y-114710954D01*
X46876191Y-114710954D02*
X46876191Y-114558573D01*
X46876191Y-114558573D02*
X46914286Y-114482382D01*
X46914286Y-114482382D02*
X46952381Y-114444287D01*
X46952381Y-114444287D02*
X47028572Y-114406192D01*
X45923809Y-114863335D02*
X45923809Y-114330001D01*
X45923809Y-114406192D02*
X45885714Y-114368097D01*
X45885714Y-114368097D02*
X45809524Y-114330001D01*
X45809524Y-114330001D02*
X45695238Y-114330001D01*
X45695238Y-114330001D02*
X45619047Y-114368097D01*
X45619047Y-114368097D02*
X45580952Y-114444287D01*
X45580952Y-114444287D02*
X45580952Y-114863335D01*
X45580952Y-114444287D02*
X45542857Y-114368097D01*
X45542857Y-114368097D02*
X45466666Y-114330001D01*
X45466666Y-114330001D02*
X45352381Y-114330001D01*
X45352381Y-114330001D02*
X45276190Y-114368097D01*
X45276190Y-114368097D02*
X45238095Y-114444287D01*
X45238095Y-114444287D02*
X45238095Y-114863335D01*
X44857142Y-114863335D02*
X44857142Y-114330001D01*
X44857142Y-114406192D02*
X44819047Y-114368097D01*
X44819047Y-114368097D02*
X44742857Y-114330001D01*
X44742857Y-114330001D02*
X44628571Y-114330001D01*
X44628571Y-114330001D02*
X44552380Y-114368097D01*
X44552380Y-114368097D02*
X44514285Y-114444287D01*
X44514285Y-114444287D02*
X44514285Y-114863335D01*
X44514285Y-114444287D02*
X44476190Y-114368097D01*
X44476190Y-114368097D02*
X44399999Y-114330001D01*
X44399999Y-114330001D02*
X44285714Y-114330001D01*
X44285714Y-114330001D02*
X44209523Y-114368097D01*
X44209523Y-114368097D02*
X44171428Y-114444287D01*
X44171428Y-114444287D02*
X44171428Y-114863335D01*
X42838094Y-114330001D02*
X42838094Y-114863335D01*
X43028570Y-114025240D02*
X43219047Y-114596668D01*
X43219047Y-114596668D02*
X42723808Y-114596668D01*
X42419046Y-114558573D02*
X41809523Y-114558573D01*
X41047618Y-114863335D02*
X41428570Y-114863335D01*
X41428570Y-114863335D02*
X41428570Y-114063335D01*
X40819047Y-114634763D02*
X40438094Y-114634763D01*
X40895237Y-114863335D02*
X40628570Y-114063335D01*
X40628570Y-114063335D02*
X40361904Y-114863335D01*
X39942856Y-114482382D02*
X39942856Y-114863335D01*
X40209523Y-114063335D02*
X39942856Y-114482382D01*
X39942856Y-114482382D02*
X39676190Y-114063335D01*
X39409523Y-114444287D02*
X39142857Y-114444287D01*
X39028571Y-114863335D02*
X39409523Y-114863335D01*
X39409523Y-114863335D02*
X39409523Y-114063335D01*
X39409523Y-114063335D02*
X39028571Y-114063335D01*
X38228570Y-114863335D02*
X38495237Y-114482382D01*
X38685713Y-114863335D02*
X38685713Y-114063335D01*
X38685713Y-114063335D02*
X38380951Y-114063335D01*
X38380951Y-114063335D02*
X38304761Y-114101430D01*
X38304761Y-114101430D02*
X38266666Y-114139525D01*
X38266666Y-114139525D02*
X38228570Y-114215716D01*
X38228570Y-114215716D02*
X38228570Y-114330001D01*
X38228570Y-114330001D02*
X38266666Y-114406192D01*
X38266666Y-114406192D02*
X38304761Y-114444287D01*
X38304761Y-114444287D02*
X38380951Y-114482382D01*
X38380951Y-114482382D02*
X38685713Y-114482382D01*
X37276189Y-114558573D02*
X36666666Y-114558573D01*
X35219046Y-114863335D02*
X35485713Y-114482382D01*
X35676189Y-114863335D02*
X35676189Y-114063335D01*
X35676189Y-114063335D02*
X35371427Y-114063335D01*
X35371427Y-114063335D02*
X35295237Y-114101430D01*
X35295237Y-114101430D02*
X35257142Y-114139525D01*
X35257142Y-114139525D02*
X35219046Y-114215716D01*
X35219046Y-114215716D02*
X35219046Y-114330001D01*
X35219046Y-114330001D02*
X35257142Y-114406192D01*
X35257142Y-114406192D02*
X35295237Y-114444287D01*
X35295237Y-114444287D02*
X35371427Y-114482382D01*
X35371427Y-114482382D02*
X35676189Y-114482382D01*
X34876189Y-114444287D02*
X34609523Y-114444287D01*
X34495237Y-114863335D02*
X34876189Y-114863335D01*
X34876189Y-114863335D02*
X34876189Y-114063335D01*
X34876189Y-114063335D02*
X34495237Y-114063335D01*
X34266665Y-114063335D02*
X33999998Y-114863335D01*
X33999998Y-114863335D02*
X33733332Y-114063335D01*
X32857141Y-114863335D02*
X32857141Y-114063335D01*
X32857141Y-114063335D02*
X32552379Y-114063335D01*
X32552379Y-114063335D02*
X32476189Y-114101430D01*
X32476189Y-114101430D02*
X32438094Y-114139525D01*
X32438094Y-114139525D02*
X32399998Y-114215716D01*
X32399998Y-114215716D02*
X32399998Y-114330001D01*
X32399998Y-114330001D02*
X32438094Y-114406192D01*
X32438094Y-114406192D02*
X32476189Y-114444287D01*
X32476189Y-114444287D02*
X32552379Y-114482382D01*
X32552379Y-114482382D02*
X32857141Y-114482382D01*
X31599998Y-114863335D02*
X31866665Y-114482382D01*
X32057141Y-114863335D02*
X32057141Y-114063335D01*
X32057141Y-114063335D02*
X31752379Y-114063335D01*
X31752379Y-114063335D02*
X31676189Y-114101430D01*
X31676189Y-114101430D02*
X31638094Y-114139525D01*
X31638094Y-114139525D02*
X31599998Y-114215716D01*
X31599998Y-114215716D02*
X31599998Y-114330001D01*
X31599998Y-114330001D02*
X31638094Y-114406192D01*
X31638094Y-114406192D02*
X31676189Y-114444287D01*
X31676189Y-114444287D02*
X31752379Y-114482382D01*
X31752379Y-114482382D02*
X32057141Y-114482382D01*
X31104760Y-114063335D02*
X30952379Y-114063335D01*
X30952379Y-114063335D02*
X30876189Y-114101430D01*
X30876189Y-114101430D02*
X30799998Y-114177620D01*
X30799998Y-114177620D02*
X30761903Y-114330001D01*
X30761903Y-114330001D02*
X30761903Y-114596668D01*
X30761903Y-114596668D02*
X30799998Y-114749049D01*
X30799998Y-114749049D02*
X30876189Y-114825240D01*
X30876189Y-114825240D02*
X30952379Y-114863335D01*
X30952379Y-114863335D02*
X31104760Y-114863335D01*
X31104760Y-114863335D02*
X31180951Y-114825240D01*
X31180951Y-114825240D02*
X31257141Y-114749049D01*
X31257141Y-114749049D02*
X31295237Y-114596668D01*
X31295237Y-114596668D02*
X31295237Y-114330001D01*
X31295237Y-114330001D02*
X31257141Y-114177620D01*
X31257141Y-114177620D02*
X31180951Y-114101430D01*
X31180951Y-114101430D02*
X31104760Y-114063335D01*
X30533332Y-114063335D02*
X30076189Y-114063335D01*
X30304761Y-114863335D02*
X30304761Y-114063335D01*
X29657141Y-114063335D02*
X29504760Y-114063335D01*
X29504760Y-114063335D02*
X29428570Y-114101430D01*
X29428570Y-114101430D02*
X29352379Y-114177620D01*
X29352379Y-114177620D02*
X29314284Y-114330001D01*
X29314284Y-114330001D02*
X29314284Y-114596668D01*
X29314284Y-114596668D02*
X29352379Y-114749049D01*
X29352379Y-114749049D02*
X29428570Y-114825240D01*
X29428570Y-114825240D02*
X29504760Y-114863335D01*
X29504760Y-114863335D02*
X29657141Y-114863335D01*
X29657141Y-114863335D02*
X29733332Y-114825240D01*
X29733332Y-114825240D02*
X29809522Y-114749049D01*
X29809522Y-114749049D02*
X29847618Y-114596668D01*
X29847618Y-114596668D02*
X29847618Y-114330001D01*
X29847618Y-114330001D02*
X29809522Y-114177620D01*
X29809522Y-114177620D02*
X29733332Y-114101430D01*
X29733332Y-114101430D02*
X29657141Y-114063335D01*
X28971427Y-114558573D02*
X28361904Y-114558573D01*
X27714285Y-114444287D02*
X27599999Y-114482382D01*
X27599999Y-114482382D02*
X27561904Y-114520478D01*
X27561904Y-114520478D02*
X27523808Y-114596668D01*
X27523808Y-114596668D02*
X27523808Y-114710954D01*
X27523808Y-114710954D02*
X27561904Y-114787144D01*
X27561904Y-114787144D02*
X27599999Y-114825240D01*
X27599999Y-114825240D02*
X27676189Y-114863335D01*
X27676189Y-114863335D02*
X27980951Y-114863335D01*
X27980951Y-114863335D02*
X27980951Y-114063335D01*
X27980951Y-114063335D02*
X27714285Y-114063335D01*
X27714285Y-114063335D02*
X27638094Y-114101430D01*
X27638094Y-114101430D02*
X27599999Y-114139525D01*
X27599999Y-114139525D02*
X27561904Y-114215716D01*
X27561904Y-114215716D02*
X27561904Y-114291906D01*
X27561904Y-114291906D02*
X27599999Y-114368097D01*
X27599999Y-114368097D02*
X27638094Y-114406192D01*
X27638094Y-114406192D02*
X27714285Y-114444287D01*
X27714285Y-114444287D02*
X27980951Y-114444287D01*
D11*
X53476190Y-116954299D02*
X53476190Y-115954299D01*
X53476190Y-115954299D02*
X53095238Y-115954299D01*
X53095238Y-115954299D02*
X53000000Y-116001918D01*
X53000000Y-116001918D02*
X52952381Y-116049537D01*
X52952381Y-116049537D02*
X52904762Y-116144775D01*
X52904762Y-116144775D02*
X52904762Y-116287632D01*
X52904762Y-116287632D02*
X52952381Y-116382870D01*
X52952381Y-116382870D02*
X53000000Y-116430489D01*
X53000000Y-116430489D02*
X53095238Y-116478108D01*
X53095238Y-116478108D02*
X53476190Y-116478108D01*
X52285714Y-115954299D02*
X52095238Y-115954299D01*
X52095238Y-115954299D02*
X52000000Y-116001918D01*
X52000000Y-116001918D02*
X51904762Y-116097156D01*
X51904762Y-116097156D02*
X51857143Y-116287632D01*
X51857143Y-116287632D02*
X51857143Y-116620965D01*
X51857143Y-116620965D02*
X51904762Y-116811441D01*
X51904762Y-116811441D02*
X52000000Y-116906680D01*
X52000000Y-116906680D02*
X52095238Y-116954299D01*
X52095238Y-116954299D02*
X52285714Y-116954299D01*
X52285714Y-116954299D02*
X52380952Y-116906680D01*
X52380952Y-116906680D02*
X52476190Y-116811441D01*
X52476190Y-116811441D02*
X52523809Y-116620965D01*
X52523809Y-116620965D02*
X52523809Y-116287632D01*
X52523809Y-116287632D02*
X52476190Y-116097156D01*
X52476190Y-116097156D02*
X52380952Y-116001918D01*
X52380952Y-116001918D02*
X52285714Y-115954299D01*
X51428571Y-116954299D02*
X51428571Y-115954299D01*
X50857143Y-116954299D02*
X51285714Y-116382870D01*
X50857143Y-115954299D02*
X51428571Y-116525727D01*
X50428571Y-116430489D02*
X50095238Y-116430489D01*
X49952381Y-116954299D02*
X50428571Y-116954299D01*
X50428571Y-116954299D02*
X50428571Y-115954299D01*
X50428571Y-115954299D02*
X49952381Y-115954299D01*
X49190476Y-116430489D02*
X49047619Y-116478108D01*
X49047619Y-116478108D02*
X49000000Y-116525727D01*
X49000000Y-116525727D02*
X48952381Y-116620965D01*
X48952381Y-116620965D02*
X48952381Y-116763822D01*
X48952381Y-116763822D02*
X49000000Y-116859060D01*
X49000000Y-116859060D02*
X49047619Y-116906680D01*
X49047619Y-116906680D02*
X49142857Y-116954299D01*
X49142857Y-116954299D02*
X49523809Y-116954299D01*
X49523809Y-116954299D02*
X49523809Y-115954299D01*
X49523809Y-115954299D02*
X49190476Y-115954299D01*
X49190476Y-115954299D02*
X49095238Y-116001918D01*
X49095238Y-116001918D02*
X49047619Y-116049537D01*
X49047619Y-116049537D02*
X49000000Y-116144775D01*
X49000000Y-116144775D02*
X49000000Y-116240013D01*
X49000000Y-116240013D02*
X49047619Y-116335251D01*
X49047619Y-116335251D02*
X49095238Y-116382870D01*
X49095238Y-116382870D02*
X49190476Y-116430489D01*
X49190476Y-116430489D02*
X49523809Y-116430489D01*
X48333333Y-115954299D02*
X48142857Y-115954299D01*
X48142857Y-115954299D02*
X48047619Y-116001918D01*
X48047619Y-116001918D02*
X47952381Y-116097156D01*
X47952381Y-116097156D02*
X47904762Y-116287632D01*
X47904762Y-116287632D02*
X47904762Y-116620965D01*
X47904762Y-116620965D02*
X47952381Y-116811441D01*
X47952381Y-116811441D02*
X48047619Y-116906680D01*
X48047619Y-116906680D02*
X48142857Y-116954299D01*
X48142857Y-116954299D02*
X48333333Y-116954299D01*
X48333333Y-116954299D02*
X48428571Y-116906680D01*
X48428571Y-116906680D02*
X48523809Y-116811441D01*
X48523809Y-116811441D02*
X48571428Y-116620965D01*
X48571428Y-116620965D02*
X48571428Y-116287632D01*
X48571428Y-116287632D02*
X48523809Y-116097156D01*
X48523809Y-116097156D02*
X48428571Y-116001918D01*
X48428571Y-116001918D02*
X48333333Y-115954299D01*
X47285714Y-116478108D02*
X47285714Y-116954299D01*
X47619047Y-115954299D02*
X47285714Y-116478108D01*
X47285714Y-116478108D02*
X46952381Y-115954299D01*
X45666666Y-115954299D02*
X45476190Y-115954299D01*
X45476190Y-115954299D02*
X45380952Y-116001918D01*
X45380952Y-116001918D02*
X45285714Y-116097156D01*
X45285714Y-116097156D02*
X45238095Y-116287632D01*
X45238095Y-116287632D02*
X45238095Y-116620965D01*
X45238095Y-116620965D02*
X45285714Y-116811441D01*
X45285714Y-116811441D02*
X45380952Y-116906680D01*
X45380952Y-116906680D02*
X45476190Y-116954299D01*
X45476190Y-116954299D02*
X45666666Y-116954299D01*
X45666666Y-116954299D02*
X45761904Y-116906680D01*
X45761904Y-116906680D02*
X45857142Y-116811441D01*
X45857142Y-116811441D02*
X45904761Y-116620965D01*
X45904761Y-116620965D02*
X45904761Y-116287632D01*
X45904761Y-116287632D02*
X45857142Y-116097156D01*
X45857142Y-116097156D02*
X45761904Y-116001918D01*
X45761904Y-116001918D02*
X45666666Y-115954299D01*
X44857142Y-116906680D02*
X44714285Y-116954299D01*
X44714285Y-116954299D02*
X44476190Y-116954299D01*
X44476190Y-116954299D02*
X44380952Y-116906680D01*
X44380952Y-116906680D02*
X44333333Y-116859060D01*
X44333333Y-116859060D02*
X44285714Y-116763822D01*
X44285714Y-116763822D02*
X44285714Y-116668584D01*
X44285714Y-116668584D02*
X44333333Y-116573346D01*
X44333333Y-116573346D02*
X44380952Y-116525727D01*
X44380952Y-116525727D02*
X44476190Y-116478108D01*
X44476190Y-116478108D02*
X44666666Y-116430489D01*
X44666666Y-116430489D02*
X44761904Y-116382870D01*
X44761904Y-116382870D02*
X44809523Y-116335251D01*
X44809523Y-116335251D02*
X44857142Y-116240013D01*
X44857142Y-116240013D02*
X44857142Y-116144775D01*
X44857142Y-116144775D02*
X44809523Y-116049537D01*
X44809523Y-116049537D02*
X44761904Y-116001918D01*
X44761904Y-116001918D02*
X44666666Y-115954299D01*
X44666666Y-115954299D02*
X44428571Y-115954299D01*
X44428571Y-115954299D02*
X44285714Y-116001918D01*
X43857142Y-116954299D02*
X43857142Y-115954299D01*
X43857142Y-115954299D02*
X43619047Y-115954299D01*
X43619047Y-115954299D02*
X43476190Y-116001918D01*
X43476190Y-116001918D02*
X43380952Y-116097156D01*
X43380952Y-116097156D02*
X43333333Y-116192394D01*
X43333333Y-116192394D02*
X43285714Y-116382870D01*
X43285714Y-116382870D02*
X43285714Y-116525727D01*
X43285714Y-116525727D02*
X43333333Y-116716203D01*
X43333333Y-116716203D02*
X43380952Y-116811441D01*
X43380952Y-116811441D02*
X43476190Y-116906680D01*
X43476190Y-116906680D02*
X43619047Y-116954299D01*
X43619047Y-116954299D02*
X43857142Y-116954299D01*
X42952380Y-115954299D02*
X42333333Y-115954299D01*
X42333333Y-115954299D02*
X42666666Y-116335251D01*
X42666666Y-116335251D02*
X42523809Y-116335251D01*
X42523809Y-116335251D02*
X42428571Y-116382870D01*
X42428571Y-116382870D02*
X42380952Y-116430489D01*
X42380952Y-116430489D02*
X42333333Y-116525727D01*
X42333333Y-116525727D02*
X42333333Y-116763822D01*
X42333333Y-116763822D02*
X42380952Y-116859060D01*
X42380952Y-116859060D02*
X42428571Y-116906680D01*
X42428571Y-116906680D02*
X42523809Y-116954299D01*
X42523809Y-116954299D02*
X42809523Y-116954299D01*
X42809523Y-116954299D02*
X42904761Y-116906680D01*
X42904761Y-116906680D02*
X42952380Y-116859060D01*
X41999999Y-115954299D02*
X41380952Y-115954299D01*
X41380952Y-115954299D02*
X41714285Y-116335251D01*
X41714285Y-116335251D02*
X41571428Y-116335251D01*
X41571428Y-116335251D02*
X41476190Y-116382870D01*
X41476190Y-116382870D02*
X41428571Y-116430489D01*
X41428571Y-116430489D02*
X41380952Y-116525727D01*
X41380952Y-116525727D02*
X41380952Y-116763822D01*
X41380952Y-116763822D02*
X41428571Y-116859060D01*
X41428571Y-116859060D02*
X41476190Y-116906680D01*
X41476190Y-116906680D02*
X41571428Y-116954299D01*
X41571428Y-116954299D02*
X41857142Y-116954299D01*
X41857142Y-116954299D02*
X41952380Y-116906680D01*
X41952380Y-116906680D02*
X41999999Y-116859060D01*
X40476190Y-115954299D02*
X40952380Y-115954299D01*
X40952380Y-115954299D02*
X40999999Y-116430489D01*
X40999999Y-116430489D02*
X40952380Y-116382870D01*
X40952380Y-116382870D02*
X40857142Y-116335251D01*
X40857142Y-116335251D02*
X40619047Y-116335251D01*
X40619047Y-116335251D02*
X40523809Y-116382870D01*
X40523809Y-116382870D02*
X40476190Y-116430489D01*
X40476190Y-116430489D02*
X40428571Y-116525727D01*
X40428571Y-116525727D02*
X40428571Y-116763822D01*
X40428571Y-116763822D02*
X40476190Y-116859060D01*
X40476190Y-116859060D02*
X40523809Y-116906680D01*
X40523809Y-116906680D02*
X40619047Y-116954299D01*
X40619047Y-116954299D02*
X40857142Y-116954299D01*
X40857142Y-116954299D02*
X40952380Y-116906680D01*
X40952380Y-116906680D02*
X40999999Y-116859060D01*
X39857142Y-116382870D02*
X39952380Y-116335251D01*
X39952380Y-116335251D02*
X39999999Y-116287632D01*
X39999999Y-116287632D02*
X40047618Y-116192394D01*
X40047618Y-116192394D02*
X40047618Y-116144775D01*
X40047618Y-116144775D02*
X39999999Y-116049537D01*
X39999999Y-116049537D02*
X39952380Y-116001918D01*
X39952380Y-116001918D02*
X39857142Y-115954299D01*
X39857142Y-115954299D02*
X39666666Y-115954299D01*
X39666666Y-115954299D02*
X39571428Y-116001918D01*
X39571428Y-116001918D02*
X39523809Y-116049537D01*
X39523809Y-116049537D02*
X39476190Y-116144775D01*
X39476190Y-116144775D02*
X39476190Y-116192394D01*
X39476190Y-116192394D02*
X39523809Y-116287632D01*
X39523809Y-116287632D02*
X39571428Y-116335251D01*
X39571428Y-116335251D02*
X39666666Y-116382870D01*
X39666666Y-116382870D02*
X39857142Y-116382870D01*
X39857142Y-116382870D02*
X39952380Y-116430489D01*
X39952380Y-116430489D02*
X39999999Y-116478108D01*
X39999999Y-116478108D02*
X40047618Y-116573346D01*
X40047618Y-116573346D02*
X40047618Y-116763822D01*
X40047618Y-116763822D02*
X39999999Y-116859060D01*
X39999999Y-116859060D02*
X39952380Y-116906680D01*
X39952380Y-116906680D02*
X39857142Y-116954299D01*
X39857142Y-116954299D02*
X39666666Y-116954299D01*
X39666666Y-116954299D02*
X39571428Y-116906680D01*
X39571428Y-116906680D02*
X39523809Y-116859060D01*
X39523809Y-116859060D02*
X39476190Y-116763822D01*
X39476190Y-116763822D02*
X39476190Y-116573346D01*
X39476190Y-116573346D02*
X39523809Y-116478108D01*
X39523809Y-116478108D02*
X39571428Y-116430489D01*
X39571428Y-116430489D02*
X39666666Y-116382870D01*
X37571428Y-115906680D02*
X38428570Y-117192394D01*
X35904761Y-116954299D02*
X36238094Y-116478108D01*
X36476189Y-116954299D02*
X36476189Y-115954299D01*
X36476189Y-115954299D02*
X36095237Y-115954299D01*
X36095237Y-115954299D02*
X35999999Y-116001918D01*
X35999999Y-116001918D02*
X35952380Y-116049537D01*
X35952380Y-116049537D02*
X35904761Y-116144775D01*
X35904761Y-116144775D02*
X35904761Y-116287632D01*
X35904761Y-116287632D02*
X35952380Y-116382870D01*
X35952380Y-116382870D02*
X35999999Y-116430489D01*
X35999999Y-116430489D02*
X36095237Y-116478108D01*
X36095237Y-116478108D02*
X36476189Y-116478108D01*
X34952380Y-116001918D02*
X35047618Y-115954299D01*
X35047618Y-115954299D02*
X35190475Y-115954299D01*
X35190475Y-115954299D02*
X35333332Y-116001918D01*
X35333332Y-116001918D02*
X35428570Y-116097156D01*
X35428570Y-116097156D02*
X35476189Y-116192394D01*
X35476189Y-116192394D02*
X35523808Y-116382870D01*
X35523808Y-116382870D02*
X35523808Y-116525727D01*
X35523808Y-116525727D02*
X35476189Y-116716203D01*
X35476189Y-116716203D02*
X35428570Y-116811441D01*
X35428570Y-116811441D02*
X35333332Y-116906680D01*
X35333332Y-116906680D02*
X35190475Y-116954299D01*
X35190475Y-116954299D02*
X35095237Y-116954299D01*
X35095237Y-116954299D02*
X34952380Y-116906680D01*
X34952380Y-116906680D02*
X34904761Y-116859060D01*
X34904761Y-116859060D02*
X34904761Y-116525727D01*
X34904761Y-116525727D02*
X35095237Y-116525727D01*
X34142856Y-116430489D02*
X33999999Y-116478108D01*
X33999999Y-116478108D02*
X33952380Y-116525727D01*
X33952380Y-116525727D02*
X33904761Y-116620965D01*
X33904761Y-116620965D02*
X33904761Y-116763822D01*
X33904761Y-116763822D02*
X33952380Y-116859060D01*
X33952380Y-116859060D02*
X33999999Y-116906680D01*
X33999999Y-116906680D02*
X34095237Y-116954299D01*
X34095237Y-116954299D02*
X34476189Y-116954299D01*
X34476189Y-116954299D02*
X34476189Y-115954299D01*
X34476189Y-115954299D02*
X34142856Y-115954299D01*
X34142856Y-115954299D02*
X34047618Y-116001918D01*
X34047618Y-116001918D02*
X33999999Y-116049537D01*
X33999999Y-116049537D02*
X33952380Y-116144775D01*
X33952380Y-116144775D02*
X33952380Y-116240013D01*
X33952380Y-116240013D02*
X33999999Y-116335251D01*
X33999999Y-116335251D02*
X34047618Y-116382870D01*
X34047618Y-116382870D02*
X34142856Y-116430489D01*
X34142856Y-116430489D02*
X34476189Y-116430489D01*
X33047618Y-115954299D02*
X33238094Y-115954299D01*
X33238094Y-115954299D02*
X33333332Y-116001918D01*
X33333332Y-116001918D02*
X33380951Y-116049537D01*
X33380951Y-116049537D02*
X33476189Y-116192394D01*
X33476189Y-116192394D02*
X33523808Y-116382870D01*
X33523808Y-116382870D02*
X33523808Y-116763822D01*
X33523808Y-116763822D02*
X33476189Y-116859060D01*
X33476189Y-116859060D02*
X33428570Y-116906680D01*
X33428570Y-116906680D02*
X33333332Y-116954299D01*
X33333332Y-116954299D02*
X33142856Y-116954299D01*
X33142856Y-116954299D02*
X33047618Y-116906680D01*
X33047618Y-116906680D02*
X32999999Y-116859060D01*
X32999999Y-116859060D02*
X32952380Y-116763822D01*
X32952380Y-116763822D02*
X32952380Y-116525727D01*
X32952380Y-116525727D02*
X32999999Y-116430489D01*
X32999999Y-116430489D02*
X33047618Y-116382870D01*
X33047618Y-116382870D02*
X33142856Y-116335251D01*
X33142856Y-116335251D02*
X33333332Y-116335251D01*
X33333332Y-116335251D02*
X33428570Y-116382870D01*
X33428570Y-116382870D02*
X33476189Y-116430489D01*
X33476189Y-116430489D02*
X33523808Y-116525727D01*
X32095237Y-115954299D02*
X32285713Y-115954299D01*
X32285713Y-115954299D02*
X32380951Y-116001918D01*
X32380951Y-116001918D02*
X32428570Y-116049537D01*
X32428570Y-116049537D02*
X32523808Y-116192394D01*
X32523808Y-116192394D02*
X32571427Y-116382870D01*
X32571427Y-116382870D02*
X32571427Y-116763822D01*
X32571427Y-116763822D02*
X32523808Y-116859060D01*
X32523808Y-116859060D02*
X32476189Y-116906680D01*
X32476189Y-116906680D02*
X32380951Y-116954299D01*
X32380951Y-116954299D02*
X32190475Y-116954299D01*
X32190475Y-116954299D02*
X32095237Y-116906680D01*
X32095237Y-116906680D02*
X32047618Y-116859060D01*
X32047618Y-116859060D02*
X31999999Y-116763822D01*
X31999999Y-116763822D02*
X31999999Y-116525727D01*
X31999999Y-116525727D02*
X32047618Y-116430489D01*
X32047618Y-116430489D02*
X32095237Y-116382870D01*
X32095237Y-116382870D02*
X32190475Y-116335251D01*
X32190475Y-116335251D02*
X32380951Y-116335251D01*
X32380951Y-116335251D02*
X32476189Y-116382870D01*
X32476189Y-116382870D02*
X32523808Y-116430489D01*
X32523808Y-116430489D02*
X32571427Y-116525727D01*
X31142856Y-115954299D02*
X31333332Y-115954299D01*
X31333332Y-115954299D02*
X31428570Y-116001918D01*
X31428570Y-116001918D02*
X31476189Y-116049537D01*
X31476189Y-116049537D02*
X31571427Y-116192394D01*
X31571427Y-116192394D02*
X31619046Y-116382870D01*
X31619046Y-116382870D02*
X31619046Y-116763822D01*
X31619046Y-116763822D02*
X31571427Y-116859060D01*
X31571427Y-116859060D02*
X31523808Y-116906680D01*
X31523808Y-116906680D02*
X31428570Y-116954299D01*
X31428570Y-116954299D02*
X31238094Y-116954299D01*
X31238094Y-116954299D02*
X31142856Y-116906680D01*
X31142856Y-116906680D02*
X31095237Y-116859060D01*
X31095237Y-116859060D02*
X31047618Y-116763822D01*
X31047618Y-116763822D02*
X31047618Y-116525727D01*
X31047618Y-116525727D02*
X31095237Y-116430489D01*
X31095237Y-116430489D02*
X31142856Y-116382870D01*
X31142856Y-116382870D02*
X31238094Y-116335251D01*
X31238094Y-116335251D02*
X31428570Y-116335251D01*
X31428570Y-116335251D02*
X31523808Y-116382870D01*
X31523808Y-116382870D02*
X31571427Y-116430489D01*
X31571427Y-116430489D02*
X31619046Y-116525727D01*
X29142856Y-115906680D02*
X29999998Y-117192394D01*
X27523808Y-116954299D02*
X28095236Y-116954299D01*
X27809522Y-116954299D02*
X27809522Y-115954299D01*
X27809522Y-115954299D02*
X27904760Y-116097156D01*
X27904760Y-116097156D02*
X27999998Y-116192394D01*
X27999998Y-116192394D02*
X28095236Y-116240013D01*
X27142855Y-116906680D02*
X26999998Y-116954299D01*
X26999998Y-116954299D02*
X26761903Y-116954299D01*
X26761903Y-116954299D02*
X26666665Y-116906680D01*
X26666665Y-116906680D02*
X26619046Y-116859060D01*
X26619046Y-116859060D02*
X26571427Y-116763822D01*
X26571427Y-116763822D02*
X26571427Y-116668584D01*
X26571427Y-116668584D02*
X26619046Y-116573346D01*
X26619046Y-116573346D02*
X26666665Y-116525727D01*
X26666665Y-116525727D02*
X26761903Y-116478108D01*
X26761903Y-116478108D02*
X26952379Y-116430489D01*
X26952379Y-116430489D02*
X27047617Y-116382870D01*
X27047617Y-116382870D02*
X27095236Y-116335251D01*
X27095236Y-116335251D02*
X27142855Y-116240013D01*
X27142855Y-116240013D02*
X27142855Y-116144775D01*
X27142855Y-116144775D02*
X27095236Y-116049537D01*
X27095236Y-116049537D02*
X27047617Y-116001918D01*
X27047617Y-116001918D02*
X26952379Y-115954299D01*
X26952379Y-115954299D02*
X26714284Y-115954299D01*
X26714284Y-115954299D02*
X26571427Y-116001918D01*
X24904760Y-116954299D02*
X25380950Y-116954299D01*
X25380950Y-116954299D02*
X25380950Y-115954299D01*
X24571426Y-116954299D02*
X24571426Y-115954299D01*
X24095236Y-116954299D02*
X24095236Y-115954299D01*
X24095236Y-115954299D02*
X23714284Y-115954299D01*
X23714284Y-115954299D02*
X23619046Y-116001918D01*
X23619046Y-116001918D02*
X23571427Y-116049537D01*
X23571427Y-116049537D02*
X23523808Y-116144775D01*
X23523808Y-116144775D02*
X23523808Y-116287632D01*
X23523808Y-116287632D02*
X23571427Y-116382870D01*
X23571427Y-116382870D02*
X23619046Y-116430489D01*
X23619046Y-116430489D02*
X23714284Y-116478108D01*
X23714284Y-116478108D02*
X24095236Y-116478108D01*
X22904760Y-115954299D02*
X22714284Y-115954299D01*
X22714284Y-115954299D02*
X22619046Y-116001918D01*
X22619046Y-116001918D02*
X22523808Y-116097156D01*
X22523808Y-116097156D02*
X22476189Y-116287632D01*
X22476189Y-116287632D02*
X22476189Y-116620965D01*
X22476189Y-116620965D02*
X22523808Y-116811441D01*
X22523808Y-116811441D02*
X22619046Y-116906680D01*
X22619046Y-116906680D02*
X22714284Y-116954299D01*
X22714284Y-116954299D02*
X22904760Y-116954299D01*
X22904760Y-116954299D02*
X22999998Y-116906680D01*
X22999998Y-116906680D02*
X23095236Y-116811441D01*
X23095236Y-116811441D02*
X23142855Y-116620965D01*
X23142855Y-116620965D02*
X23142855Y-116287632D01*
X23142855Y-116287632D02*
X23095236Y-116097156D01*
X23095236Y-116097156D02*
X22999998Y-116001918D01*
X22999998Y-116001918D02*
X22904760Y-115954299D01*
M02*
