M48
; DRILL file {KiCad 9.0.8+dfsg-1} date 2026-08-16T01:26:38-0700
; FORMAT={-:-/ absolute / metric / decimal}
; #@! TF.CreationDate,2026-08-16T01:26:38-07:00
; #@! TF.GenerationSoftware,Kicad,Pcbnew,9.0.8+dfsg-1
; #@! TF.FileFunction,Plated,1,4,PTH
FMAT,2
METRIC
; #@! TA.AperFunction,Plated,PTH,ViaDrill
T1C0.200
; #@! TA.AperFunction,Plated,PTH,ComponentDrill
T2C0.250
; #@! TA.AperFunction,Plated,PTH,ComponentDrill
T3C0.600
; #@! TA.AperFunction,Plated,PTH,ComponentDrill
T4C0.850
%
G90
G05
T1
X4.841Y-82.66
X9.677Y-45.501
X10.91Y-29.5
X10.938Y-41.209
X11.002Y-28.925
X11.589Y-40.852
X11.782Y-90.454
X12.003Y-74.465
X12.723Y-32.211
X14.244Y-45.885
X14.388Y-42.927
X14.447Y-38.872
X14.473Y-26.901
X14.973Y-64.881
X14.994Y-75.003
X15.375Y-57.929
X16.49Y-64.331
X17.2Y-2.146
X17.295Y-32.861
X17.32Y-5.922
X17.582Y-19.462
X17.703Y-25.865
X18.144Y-27.377
X18.161Y-41.767
X18.406Y-58.844
X18.5Y-5.913
X18.727Y-35.311
X18.779Y-28.35
X18.895Y-32.899
X19.148Y-58.53
X19.5Y-5.912
X19.773Y-82.462
X20.141Y-62.373
X20.204Y-30.835
X20.441Y-38.262
X20.569Y-28.269
X20.652Y-31.59
X21.245Y-38.112
X21.35Y-55.703
X21.601Y-32.579
X22.16Y-29.501
X23.102Y-103.004
X23.422Y-28.481
X23.5Y-38.085
X23.566Y-29.585
X23.615Y-32.382
X23.775Y-35.803
X24.074Y-14.382
X24.731Y-64.05
X24.877Y-14.378
X25.04Y-29.62
X25.229Y-32.756
X25.734Y-30.63
X25.83Y-34.734
X26.146Y-32.812
X27.051Y-59.821
X27.345Y-2.467
X27.738Y-32.382
X27.74Y-7.847
X28.0Y-59.5
X29.0Y-13.056
X29.099Y-14.437
X29.196Y-34.813
X29.54Y-25.337
X30.034Y-32.382
X30.206Y-3.802
X30.5Y-38.085
X30.5Y-60.683
X31.302Y-29.62
X31.636Y-3.916
X31.684Y-36.423
X32.922Y-37.34
X32.985Y-32.167
X33.2Y-4.258
X33.436Y-29.952
X33.556Y-30.748
X33.718Y-21.93
X34.267Y-32.44
X34.557Y-34.818
X34.565Y-23.727
X35.093Y-37.973
X35.316Y-18.197
X35.577Y-22.004
X35.675Y-24.637
X35.768Y-38.079
X35.855Y-27.281
X36.055Y-29.454
X36.177Y-40.482
X36.182Y-41.442
X36.855Y-39.022
X37.155Y-21.513
X37.187Y-20.557
X37.432Y-26.463
X37.601Y-17.786
X37.605Y-24.924
X38.064Y-16.362
X38.36Y-20.263
X39.1Y-26.4
X39.346Y-102.778
X40.326Y-28.345
X40.56Y-24.735
X41.433Y-23.401
X41.436Y-15.879
X41.5Y-28.792
X41.726Y-23.91
X41.882Y-22.549
X42.831Y-11.536
X42.831Y-21.291
X42.944Y-27.237
X42.981Y-21.88
X43.678Y-14.528
X43.908Y-18.374
X43.935Y-30.5
X43.937Y-10.535
X43.937Y-16.626
X43.937Y-24.83
X44.024Y-20.63
X44.561Y-16.503
X44.561Y-24.831
X44.741Y-14.423
X44.956Y-30.325
X44.956Y-34.46
X45.137Y-28.345
X45.174Y-16.626
X45.312Y-12.295
X45.383Y-14.494
X45.462Y-20.615
X45.49Y-34.8
X45.49Y-32.205
X46.09Y-34.621
X46.09Y-36.423
X46.09Y-38.193
X46.142Y-14.609
X46.5Y-41.443
X46.885Y-23.554
X47.04Y-12.526
X47.057Y-27.741
X47.107Y-20.25
X47.5Y-32.685
X47.5Y-39.022
X47.641Y-43.286
X47.658Y-87.974
X47.7Y-40.482
X48.137Y-25.313
X48.49Y-34.621
X48.49Y-36.423
X48.49Y-38.193
X48.543Y-18.21
X48.543Y-17.3
X48.548Y-16.028
X49.081Y-26.12
X49.081Y-59.259
X49.835Y-26.137
X49.858Y-34.6
X49.858Y-30.121
X50.057Y-45.501
X50.057Y-49.931
X50.37Y-38.193
X50.398Y-30.676
X50.457Y-21.782
X50.461Y-16.378
X50.463Y-24.182
X50.463Y-16.93
X50.469Y-22.965
X50.472Y-21.066
X50.473Y-18.258
X50.476Y-15.8
X50.772Y-33.087
X50.898Y-19.435
X51.179Y-18.302
X51.247Y-43.34
X51.382Y-17.498
X51.49Y-34.014
X51.621Y-36.406
X52.5Y-65.5
X52.509Y-36.826
X52.511Y-32.339
X52.634Y-42.554
X52.667Y-41.471
X53.0Y-57.64
X53.089Y-33.604
X53.3Y-38.6
X54.139Y-68.409
X54.65Y-32.344
X54.82Y-33.782
X55.04Y-57.41
X55.49Y-60.837
X55.8Y-37.15
X55.919Y-31.643
X56.925Y-32.287
X57.49Y-32.331
X57.66Y-70.339
X57.969Y-66.834
X58.377Y-57.0
X58.384Y-57.911
X58.388Y-62.651
X58.697Y-49.931
X59.329Y-63.01
X59.51Y-32.316
X60.039Y-67.75
X60.842Y-67.48
X63.724Y-7.712
X64.008Y-6.0
X65.079Y-5.938
X65.191Y-12.546
X65.566Y-77.67
X65.72Y-4.068
X66.871Y-7.307
X67.422Y-6.538
X67.763Y-6.993
X67.968Y-5.849
X67.973Y-9.994
X68.7Y-8.65
X68.95Y-10.403
X69.075Y-12.133
X69.2Y-8.65
X70.35Y-13.71
X71.407Y-8.633
X73.5Y-12.091
X74.753Y-10.2
X75.063Y-8.32
T2
X58.5Y-67.5
X58.5Y-68.5
T4
X16.0Y-1.137
X21.0Y-1.137
T3
X15.0Y-4.188G85X15.0Y-3.487
G05
X22.0Y-3.487G85X22.0Y-4.188
G05
M30
