%TF.GenerationSoftware,KiCad,Pcbnew,9.0.8+dfsg-1*%
%TF.CreationDate,2026-08-16T01:26:38-07:00*%
%TF.ProjectId,pokeboy-hw,706f6b65-626f-4792-9d68-772e6b696361,rev?*%
%TF.SameCoordinates,Original*%
%TF.FileFunction,Legend,Top*%
%TF.FilePolarity,Positive*%
%FSLAX46Y46*%
G04 Gerber Fmt 4.6, Leading zero omitted, Abs format (unit mm)*
G04 Created by KiCad (PCBNEW 9.0.8+dfsg-1) date 2026-08-16 01:26:38*
%MOMM*%
%LPD*%
G01*
G04 APERTURE LIST*
%ADD10C,0.110000*%
%ADD11C,0.120000*%
%ADD12C,0.150000*%
%ADD13C,0.115824*%
%ADD14C,0.076200*%
%ADD15C,0.100000*%
%ADD16C,0.180000*%
%ADD17C,0.127000*%
G04 APERTURE END LIST*
D10*
X9490476Y-3564375D02*
X9490476Y-4211994D01*
X9490476Y-4211994D02*
X9528571Y-4288184D01*
X9528571Y-4288184D02*
X9566666Y-4326280D01*
X9566666Y-4326280D02*
X9642857Y-4364375D01*
X9642857Y-4364375D02*
X9795238Y-4364375D01*
X9795238Y-4364375D02*
X9871428Y-4326280D01*
X9871428Y-4326280D02*
X9909523Y-4288184D01*
X9909523Y-4288184D02*
X9947619Y-4211994D01*
X9947619Y-4211994D02*
X9947619Y-3564375D01*
X10290475Y-4326280D02*
X10404761Y-4364375D01*
X10404761Y-4364375D02*
X10595237Y-4364375D01*
X10595237Y-4364375D02*
X10671428Y-4326280D01*
X10671428Y-4326280D02*
X10709523Y-4288184D01*
X10709523Y-4288184D02*
X10747618Y-4211994D01*
X10747618Y-4211994D02*
X10747618Y-4135803D01*
X10747618Y-4135803D02*
X10709523Y-4059613D01*
X10709523Y-4059613D02*
X10671428Y-4021518D01*
X10671428Y-4021518D02*
X10595237Y-3983422D01*
X10595237Y-3983422D02*
X10442856Y-3945327D01*
X10442856Y-3945327D02*
X10366666Y-3907232D01*
X10366666Y-3907232D02*
X10328571Y-3869137D01*
X10328571Y-3869137D02*
X10290475Y-3792946D01*
X10290475Y-3792946D02*
X10290475Y-3716756D01*
X10290475Y-3716756D02*
X10328571Y-3640565D01*
X10328571Y-3640565D02*
X10366666Y-3602470D01*
X10366666Y-3602470D02*
X10442856Y-3564375D01*
X10442856Y-3564375D02*
X10633333Y-3564375D01*
X10633333Y-3564375D02*
X10747618Y-3602470D01*
X11357142Y-3945327D02*
X11471428Y-3983422D01*
X11471428Y-3983422D02*
X11509523Y-4021518D01*
X11509523Y-4021518D02*
X11547619Y-4097708D01*
X11547619Y-4097708D02*
X11547619Y-4211994D01*
X11547619Y-4211994D02*
X11509523Y-4288184D01*
X11509523Y-4288184D02*
X11471428Y-4326280D01*
X11471428Y-4326280D02*
X11395238Y-4364375D01*
X11395238Y-4364375D02*
X11090476Y-4364375D01*
X11090476Y-4364375D02*
X11090476Y-3564375D01*
X11090476Y-3564375D02*
X11357142Y-3564375D01*
X11357142Y-3564375D02*
X11433333Y-3602470D01*
X11433333Y-3602470D02*
X11471428Y-3640565D01*
X11471428Y-3640565D02*
X11509523Y-3716756D01*
X11509523Y-3716756D02*
X11509523Y-3792946D01*
X11509523Y-3792946D02*
X11471428Y-3869137D01*
X11471428Y-3869137D02*
X11433333Y-3907232D01*
X11433333Y-3907232D02*
X11357142Y-3945327D01*
X11357142Y-3945327D02*
X11090476Y-3945327D01*
X8504761Y-53326280D02*
X8619047Y-53364375D01*
X8619047Y-53364375D02*
X8809523Y-53364375D01*
X8809523Y-53364375D02*
X8885714Y-53326280D01*
X8885714Y-53326280D02*
X8923809Y-53288184D01*
X8923809Y-53288184D02*
X8961904Y-53211994D01*
X8961904Y-53211994D02*
X8961904Y-53135803D01*
X8961904Y-53135803D02*
X8923809Y-53059613D01*
X8923809Y-53059613D02*
X8885714Y-53021518D01*
X8885714Y-53021518D02*
X8809523Y-52983422D01*
X8809523Y-52983422D02*
X8657142Y-52945327D01*
X8657142Y-52945327D02*
X8580952Y-52907232D01*
X8580952Y-52907232D02*
X8542857Y-52869137D01*
X8542857Y-52869137D02*
X8504761Y-52792946D01*
X8504761Y-52792946D02*
X8504761Y-52716756D01*
X8504761Y-52716756D02*
X8542857Y-52640565D01*
X8542857Y-52640565D02*
X8580952Y-52602470D01*
X8580952Y-52602470D02*
X8657142Y-52564375D01*
X8657142Y-52564375D02*
X8847619Y-52564375D01*
X8847619Y-52564375D02*
X8961904Y-52602470D01*
X9304762Y-53364375D02*
X9304762Y-52564375D01*
X9304762Y-52564375D02*
X9609524Y-52564375D01*
X9609524Y-52564375D02*
X9685714Y-52602470D01*
X9685714Y-52602470D02*
X9723809Y-52640565D01*
X9723809Y-52640565D02*
X9761905Y-52716756D01*
X9761905Y-52716756D02*
X9761905Y-52831041D01*
X9761905Y-52831041D02*
X9723809Y-52907232D01*
X9723809Y-52907232D02*
X9685714Y-52945327D01*
X9685714Y-52945327D02*
X9609524Y-52983422D01*
X9609524Y-52983422D02*
X9304762Y-52983422D01*
X10104762Y-52945327D02*
X10371428Y-52945327D01*
X10485714Y-53364375D02*
X10104762Y-53364375D01*
X10104762Y-53364375D02*
X10104762Y-52564375D01*
X10104762Y-52564375D02*
X10485714Y-52564375D01*
X10790476Y-53135803D02*
X11171429Y-53135803D01*
X10714286Y-53364375D02*
X10980953Y-52564375D01*
X10980953Y-52564375D02*
X11247619Y-53364375D01*
X11514286Y-53364375D02*
X11514286Y-52564375D01*
X11971429Y-53364375D02*
X11628571Y-52907232D01*
X11971429Y-52564375D02*
X11514286Y-53021518D01*
X12314286Y-52945327D02*
X12580952Y-52945327D01*
X12695238Y-53364375D02*
X12314286Y-53364375D01*
X12314286Y-53364375D02*
X12314286Y-52564375D01*
X12314286Y-52564375D02*
X12695238Y-52564375D01*
X13495239Y-53364375D02*
X13228572Y-52983422D01*
X13038096Y-53364375D02*
X13038096Y-52564375D01*
X13038096Y-52564375D02*
X13342858Y-52564375D01*
X13342858Y-52564375D02*
X13419048Y-52602470D01*
X13419048Y-52602470D02*
X13457143Y-52640565D01*
X13457143Y-52640565D02*
X13495239Y-52716756D01*
X13495239Y-52716756D02*
X13495239Y-52831041D01*
X13495239Y-52831041D02*
X13457143Y-52907232D01*
X13457143Y-52907232D02*
X13419048Y-52945327D01*
X13419048Y-52945327D02*
X13342858Y-52983422D01*
X13342858Y-52983422D02*
X13038096Y-52983422D01*
X24619047Y-33864375D02*
X24771428Y-33864375D01*
X24771428Y-33864375D02*
X24847618Y-33902470D01*
X24847618Y-33902470D02*
X24923809Y-33978660D01*
X24923809Y-33978660D02*
X24961904Y-34131041D01*
X24961904Y-34131041D02*
X24961904Y-34397708D01*
X24961904Y-34397708D02*
X24923809Y-34550089D01*
X24923809Y-34550089D02*
X24847618Y-34626280D01*
X24847618Y-34626280D02*
X24771428Y-34664375D01*
X24771428Y-34664375D02*
X24619047Y-34664375D01*
X24619047Y-34664375D02*
X24542856Y-34626280D01*
X24542856Y-34626280D02*
X24466666Y-34550089D01*
X24466666Y-34550089D02*
X24428570Y-34397708D01*
X24428570Y-34397708D02*
X24428570Y-34131041D01*
X24428570Y-34131041D02*
X24466666Y-33978660D01*
X24466666Y-33978660D02*
X24542856Y-33902470D01*
X24542856Y-33902470D02*
X24619047Y-33864375D01*
X25266665Y-34626280D02*
X25380951Y-34664375D01*
X25380951Y-34664375D02*
X25571427Y-34664375D01*
X25571427Y-34664375D02*
X25647618Y-34626280D01*
X25647618Y-34626280D02*
X25685713Y-34588184D01*
X25685713Y-34588184D02*
X25723808Y-34511994D01*
X25723808Y-34511994D02*
X25723808Y-34435803D01*
X25723808Y-34435803D02*
X25685713Y-34359613D01*
X25685713Y-34359613D02*
X25647618Y-34321518D01*
X25647618Y-34321518D02*
X25571427Y-34283422D01*
X25571427Y-34283422D02*
X25419046Y-34245327D01*
X25419046Y-34245327D02*
X25342856Y-34207232D01*
X25342856Y-34207232D02*
X25304761Y-34169137D01*
X25304761Y-34169137D02*
X25266665Y-34092946D01*
X25266665Y-34092946D02*
X25266665Y-34016756D01*
X25266665Y-34016756D02*
X25304761Y-33940565D01*
X25304761Y-33940565D02*
X25342856Y-33902470D01*
X25342856Y-33902470D02*
X25419046Y-33864375D01*
X25419046Y-33864375D02*
X25609523Y-33864375D01*
X25609523Y-33864375D02*
X25723808Y-33902470D01*
X26066666Y-34664375D02*
X26066666Y-33864375D01*
X26066666Y-33864375D02*
X26257142Y-33864375D01*
X26257142Y-33864375D02*
X26371428Y-33902470D01*
X26371428Y-33902470D02*
X26447618Y-33978660D01*
X26447618Y-33978660D02*
X26485713Y-34054851D01*
X26485713Y-34054851D02*
X26523809Y-34207232D01*
X26523809Y-34207232D02*
X26523809Y-34321518D01*
X26523809Y-34321518D02*
X26485713Y-34473899D01*
X26485713Y-34473899D02*
X26447618Y-34550089D01*
X26447618Y-34550089D02*
X26371428Y-34626280D01*
X26371428Y-34626280D02*
X26257142Y-34664375D01*
X26257142Y-34664375D02*
X26066666Y-34664375D01*
X26790475Y-33864375D02*
X27285713Y-33864375D01*
X27285713Y-33864375D02*
X27019047Y-34169137D01*
X27019047Y-34169137D02*
X27133332Y-34169137D01*
X27133332Y-34169137D02*
X27209523Y-34207232D01*
X27209523Y-34207232D02*
X27247618Y-34245327D01*
X27247618Y-34245327D02*
X27285713Y-34321518D01*
X27285713Y-34321518D02*
X27285713Y-34511994D01*
X27285713Y-34511994D02*
X27247618Y-34588184D01*
X27247618Y-34588184D02*
X27209523Y-34626280D01*
X27209523Y-34626280D02*
X27133332Y-34664375D01*
X27133332Y-34664375D02*
X26904761Y-34664375D01*
X26904761Y-34664375D02*
X26828570Y-34626280D01*
X26828570Y-34626280D02*
X26790475Y-34588184D01*
X27552380Y-33864375D02*
X28047618Y-33864375D01*
X28047618Y-33864375D02*
X27780952Y-34169137D01*
X27780952Y-34169137D02*
X27895237Y-34169137D01*
X27895237Y-34169137D02*
X27971428Y-34207232D01*
X27971428Y-34207232D02*
X28009523Y-34245327D01*
X28009523Y-34245327D02*
X28047618Y-34321518D01*
X28047618Y-34321518D02*
X28047618Y-34511994D01*
X28047618Y-34511994D02*
X28009523Y-34588184D01*
X28009523Y-34588184D02*
X27971428Y-34626280D01*
X27971428Y-34626280D02*
X27895237Y-34664375D01*
X27895237Y-34664375D02*
X27666666Y-34664375D01*
X27666666Y-34664375D02*
X27590475Y-34626280D01*
X27590475Y-34626280D02*
X27552380Y-34588184D01*
X28771428Y-33864375D02*
X28390476Y-33864375D01*
X28390476Y-33864375D02*
X28352380Y-34245327D01*
X28352380Y-34245327D02*
X28390476Y-34207232D01*
X28390476Y-34207232D02*
X28466666Y-34169137D01*
X28466666Y-34169137D02*
X28657142Y-34169137D01*
X28657142Y-34169137D02*
X28733333Y-34207232D01*
X28733333Y-34207232D02*
X28771428Y-34245327D01*
X28771428Y-34245327D02*
X28809523Y-34321518D01*
X28809523Y-34321518D02*
X28809523Y-34511994D01*
X28809523Y-34511994D02*
X28771428Y-34588184D01*
X28771428Y-34588184D02*
X28733333Y-34626280D01*
X28733333Y-34626280D02*
X28657142Y-34664375D01*
X28657142Y-34664375D02*
X28466666Y-34664375D01*
X28466666Y-34664375D02*
X28390476Y-34626280D01*
X28390476Y-34626280D02*
X28352380Y-34588184D01*
X29266666Y-34207232D02*
X29190476Y-34169137D01*
X29190476Y-34169137D02*
X29152381Y-34131041D01*
X29152381Y-34131041D02*
X29114285Y-34054851D01*
X29114285Y-34054851D02*
X29114285Y-34016756D01*
X29114285Y-34016756D02*
X29152381Y-33940565D01*
X29152381Y-33940565D02*
X29190476Y-33902470D01*
X29190476Y-33902470D02*
X29266666Y-33864375D01*
X29266666Y-33864375D02*
X29419047Y-33864375D01*
X29419047Y-33864375D02*
X29495238Y-33902470D01*
X29495238Y-33902470D02*
X29533333Y-33940565D01*
X29533333Y-33940565D02*
X29571428Y-34016756D01*
X29571428Y-34016756D02*
X29571428Y-34054851D01*
X29571428Y-34054851D02*
X29533333Y-34131041D01*
X29533333Y-34131041D02*
X29495238Y-34169137D01*
X29495238Y-34169137D02*
X29419047Y-34207232D01*
X29419047Y-34207232D02*
X29266666Y-34207232D01*
X29266666Y-34207232D02*
X29190476Y-34245327D01*
X29190476Y-34245327D02*
X29152381Y-34283422D01*
X29152381Y-34283422D02*
X29114285Y-34359613D01*
X29114285Y-34359613D02*
X29114285Y-34511994D01*
X29114285Y-34511994D02*
X29152381Y-34588184D01*
X29152381Y-34588184D02*
X29190476Y-34626280D01*
X29190476Y-34626280D02*
X29266666Y-34664375D01*
X29266666Y-34664375D02*
X29419047Y-34664375D01*
X29419047Y-34664375D02*
X29495238Y-34626280D01*
X29495238Y-34626280D02*
X29533333Y-34588184D01*
X29533333Y-34588184D02*
X29571428Y-34511994D01*
X29571428Y-34511994D02*
X29571428Y-34359613D01*
X29571428Y-34359613D02*
X29533333Y-34283422D01*
X29533333Y-34283422D02*
X29495238Y-34245327D01*
X29495238Y-34245327D02*
X29419047Y-34207232D01*
X52057143Y-35364375D02*
X51676191Y-35364375D01*
X51676191Y-35364375D02*
X51676191Y-34564375D01*
X52780953Y-35288184D02*
X52742857Y-35326280D01*
X52742857Y-35326280D02*
X52628572Y-35364375D01*
X52628572Y-35364375D02*
X52552381Y-35364375D01*
X52552381Y-35364375D02*
X52438095Y-35326280D01*
X52438095Y-35326280D02*
X52361905Y-35250089D01*
X52361905Y-35250089D02*
X52323810Y-35173899D01*
X52323810Y-35173899D02*
X52285714Y-35021518D01*
X52285714Y-35021518D02*
X52285714Y-34907232D01*
X52285714Y-34907232D02*
X52323810Y-34754851D01*
X52323810Y-34754851D02*
X52361905Y-34678660D01*
X52361905Y-34678660D02*
X52438095Y-34602470D01*
X52438095Y-34602470D02*
X52552381Y-34564375D01*
X52552381Y-34564375D02*
X52628572Y-34564375D01*
X52628572Y-34564375D02*
X52742857Y-34602470D01*
X52742857Y-34602470D02*
X52780953Y-34640565D01*
X53123810Y-35364375D02*
X53123810Y-34564375D01*
X53123810Y-34564375D02*
X53314286Y-34564375D01*
X53314286Y-34564375D02*
X53428572Y-34602470D01*
X53428572Y-34602470D02*
X53504762Y-34678660D01*
X53504762Y-34678660D02*
X53542857Y-34754851D01*
X53542857Y-34754851D02*
X53580953Y-34907232D01*
X53580953Y-34907232D02*
X53580953Y-35021518D01*
X53580953Y-35021518D02*
X53542857Y-35173899D01*
X53542857Y-35173899D02*
X53504762Y-35250089D01*
X53504762Y-35250089D02*
X53428572Y-35326280D01*
X53428572Y-35326280D02*
X53314286Y-35364375D01*
X53314286Y-35364375D02*
X53123810Y-35364375D01*
X54800000Y-34945327D02*
X54533334Y-34945327D01*
X54533334Y-35364375D02*
X54533334Y-34564375D01*
X54533334Y-34564375D02*
X54914286Y-34564375D01*
X55485714Y-34945327D02*
X55219048Y-34945327D01*
X55219048Y-35364375D02*
X55219048Y-34564375D01*
X55219048Y-34564375D02*
X55600000Y-34564375D01*
X56361905Y-35288184D02*
X56323809Y-35326280D01*
X56323809Y-35326280D02*
X56209524Y-35364375D01*
X56209524Y-35364375D02*
X56133333Y-35364375D01*
X56133333Y-35364375D02*
X56019047Y-35326280D01*
X56019047Y-35326280D02*
X55942857Y-35250089D01*
X55942857Y-35250089D02*
X55904762Y-35173899D01*
X55904762Y-35173899D02*
X55866666Y-35021518D01*
X55866666Y-35021518D02*
X55866666Y-34907232D01*
X55866666Y-34907232D02*
X55904762Y-34754851D01*
X55904762Y-34754851D02*
X55942857Y-34678660D01*
X55942857Y-34678660D02*
X56019047Y-34602470D01*
X56019047Y-34602470D02*
X56133333Y-34564375D01*
X56133333Y-34564375D02*
X56209524Y-34564375D01*
X56209524Y-34564375D02*
X56323809Y-34602470D01*
X56323809Y-34602470D02*
X56361905Y-34640565D01*
X70380952Y-14945327D02*
X70495238Y-14983422D01*
X70495238Y-14983422D02*
X70533333Y-15021518D01*
X70533333Y-15021518D02*
X70571429Y-15097708D01*
X70571429Y-15097708D02*
X70571429Y-15211994D01*
X70571429Y-15211994D02*
X70533333Y-15288184D01*
X70533333Y-15288184D02*
X70495238Y-15326280D01*
X70495238Y-15326280D02*
X70419048Y-15364375D01*
X70419048Y-15364375D02*
X70114286Y-15364375D01*
X70114286Y-15364375D02*
X70114286Y-14564375D01*
X70114286Y-14564375D02*
X70380952Y-14564375D01*
X70380952Y-14564375D02*
X70457143Y-14602470D01*
X70457143Y-14602470D02*
X70495238Y-14640565D01*
X70495238Y-14640565D02*
X70533333Y-14716756D01*
X70533333Y-14716756D02*
X70533333Y-14792946D01*
X70533333Y-14792946D02*
X70495238Y-14869137D01*
X70495238Y-14869137D02*
X70457143Y-14907232D01*
X70457143Y-14907232D02*
X70380952Y-14945327D01*
X70380952Y-14945327D02*
X70114286Y-14945327D01*
X70876190Y-15135803D02*
X71257143Y-15135803D01*
X70800000Y-15364375D02*
X71066667Y-14564375D01*
X71066667Y-14564375D02*
X71333333Y-15364375D01*
X71485714Y-14564375D02*
X71942857Y-14564375D01*
X71714285Y-15364375D02*
X71714285Y-14564375D01*
X72819048Y-15059613D02*
X73428572Y-15059613D01*
X73123810Y-15364375D02*
X73123810Y-14754851D01*
X74419048Y-15364375D02*
X74419048Y-14564375D01*
X74419048Y-14564375D02*
X74876191Y-15364375D01*
X74876191Y-15364375D02*
X74876191Y-14564375D01*
X75142857Y-14564375D02*
X75600000Y-14564375D01*
X75371428Y-15364375D02*
X75371428Y-14564375D01*
X76323810Y-15288184D02*
X76285714Y-15326280D01*
X76285714Y-15326280D02*
X76171429Y-15364375D01*
X76171429Y-15364375D02*
X76095238Y-15364375D01*
X76095238Y-15364375D02*
X75980952Y-15326280D01*
X75980952Y-15326280D02*
X75904762Y-15250089D01*
X75904762Y-15250089D02*
X75866667Y-15173899D01*
X75866667Y-15173899D02*
X75828571Y-15021518D01*
X75828571Y-15021518D02*
X75828571Y-14907232D01*
X75828571Y-14907232D02*
X75866667Y-14754851D01*
X75866667Y-14754851D02*
X75904762Y-14678660D01*
X75904762Y-14678660D02*
X75980952Y-14602470D01*
X75980952Y-14602470D02*
X76095238Y-14564375D01*
X76095238Y-14564375D02*
X76171429Y-14564375D01*
X76171429Y-14564375D02*
X76285714Y-14602470D01*
X76285714Y-14602470D02*
X76323810Y-14640565D01*
X77276191Y-15059613D02*
X77885715Y-15059613D01*
D11*
X21133333Y-10063855D02*
X21285714Y-10063855D01*
X21285714Y-10063855D02*
X21361904Y-10101950D01*
X21361904Y-10101950D02*
X21438095Y-10178140D01*
X21438095Y-10178140D02*
X21476190Y-10330521D01*
X21476190Y-10330521D02*
X21476190Y-10597188D01*
X21476190Y-10597188D02*
X21438095Y-10749569D01*
X21438095Y-10749569D02*
X21361904Y-10825760D01*
X21361904Y-10825760D02*
X21285714Y-10863855D01*
X21285714Y-10863855D02*
X21133333Y-10863855D01*
X21133333Y-10863855D02*
X21057142Y-10825760D01*
X21057142Y-10825760D02*
X20980952Y-10749569D01*
X20980952Y-10749569D02*
X20942856Y-10597188D01*
X20942856Y-10597188D02*
X20942856Y-10330521D01*
X20942856Y-10330521D02*
X20980952Y-10178140D01*
X20980952Y-10178140D02*
X21057142Y-10101950D01*
X21057142Y-10101950D02*
X21133333Y-10063855D01*
X21780951Y-10825760D02*
X21895237Y-10863855D01*
X21895237Y-10863855D02*
X22085713Y-10863855D01*
X22085713Y-10863855D02*
X22161904Y-10825760D01*
X22161904Y-10825760D02*
X22199999Y-10787664D01*
X22199999Y-10787664D02*
X22238094Y-10711474D01*
X22238094Y-10711474D02*
X22238094Y-10635283D01*
X22238094Y-10635283D02*
X22199999Y-10559093D01*
X22199999Y-10559093D02*
X22161904Y-10520998D01*
X22161904Y-10520998D02*
X22085713Y-10482902D01*
X22085713Y-10482902D02*
X21933332Y-10444807D01*
X21933332Y-10444807D02*
X21857142Y-10406712D01*
X21857142Y-10406712D02*
X21819047Y-10368617D01*
X21819047Y-10368617D02*
X21780951Y-10292426D01*
X21780951Y-10292426D02*
X21780951Y-10216236D01*
X21780951Y-10216236D02*
X21819047Y-10140045D01*
X21819047Y-10140045D02*
X21857142Y-10101950D01*
X21857142Y-10101950D02*
X21933332Y-10063855D01*
X21933332Y-10063855D02*
X22123809Y-10063855D01*
X22123809Y-10063855D02*
X22238094Y-10101950D01*
X22580952Y-10863855D02*
X22580952Y-10063855D01*
X22580952Y-10063855D02*
X22771428Y-10063855D01*
X22771428Y-10063855D02*
X22885714Y-10101950D01*
X22885714Y-10101950D02*
X22961904Y-10178140D01*
X22961904Y-10178140D02*
X22999999Y-10254331D01*
X22999999Y-10254331D02*
X23038095Y-10406712D01*
X23038095Y-10406712D02*
X23038095Y-10520998D01*
X23038095Y-10520998D02*
X22999999Y-10673379D01*
X22999999Y-10673379D02*
X22961904Y-10749569D01*
X22961904Y-10749569D02*
X22885714Y-10825760D01*
X22885714Y-10825760D02*
X22771428Y-10863855D01*
X22771428Y-10863855D02*
X22580952Y-10863855D01*
X23304761Y-10063855D02*
X23799999Y-10063855D01*
X23799999Y-10063855D02*
X23533333Y-10368617D01*
X23533333Y-10368617D02*
X23647618Y-10368617D01*
X23647618Y-10368617D02*
X23723809Y-10406712D01*
X23723809Y-10406712D02*
X23761904Y-10444807D01*
X23761904Y-10444807D02*
X23799999Y-10520998D01*
X23799999Y-10520998D02*
X23799999Y-10711474D01*
X23799999Y-10711474D02*
X23761904Y-10787664D01*
X23761904Y-10787664D02*
X23723809Y-10825760D01*
X23723809Y-10825760D02*
X23647618Y-10863855D01*
X23647618Y-10863855D02*
X23419047Y-10863855D01*
X23419047Y-10863855D02*
X23342856Y-10825760D01*
X23342856Y-10825760D02*
X23304761Y-10787664D01*
X24066666Y-10063855D02*
X24561904Y-10063855D01*
X24561904Y-10063855D02*
X24295238Y-10368617D01*
X24295238Y-10368617D02*
X24409523Y-10368617D01*
X24409523Y-10368617D02*
X24485714Y-10406712D01*
X24485714Y-10406712D02*
X24523809Y-10444807D01*
X24523809Y-10444807D02*
X24561904Y-10520998D01*
X24561904Y-10520998D02*
X24561904Y-10711474D01*
X24561904Y-10711474D02*
X24523809Y-10787664D01*
X24523809Y-10787664D02*
X24485714Y-10825760D01*
X24485714Y-10825760D02*
X24409523Y-10863855D01*
X24409523Y-10863855D02*
X24180952Y-10863855D01*
X24180952Y-10863855D02*
X24104761Y-10825760D01*
X24104761Y-10825760D02*
X24066666Y-10787664D01*
X25285714Y-10063855D02*
X24904762Y-10063855D01*
X24904762Y-10063855D02*
X24866666Y-10444807D01*
X24866666Y-10444807D02*
X24904762Y-10406712D01*
X24904762Y-10406712D02*
X24980952Y-10368617D01*
X24980952Y-10368617D02*
X25171428Y-10368617D01*
X25171428Y-10368617D02*
X25247619Y-10406712D01*
X25247619Y-10406712D02*
X25285714Y-10444807D01*
X25285714Y-10444807D02*
X25323809Y-10520998D01*
X25323809Y-10520998D02*
X25323809Y-10711474D01*
X25323809Y-10711474D02*
X25285714Y-10787664D01*
X25285714Y-10787664D02*
X25247619Y-10825760D01*
X25247619Y-10825760D02*
X25171428Y-10863855D01*
X25171428Y-10863855D02*
X24980952Y-10863855D01*
X24980952Y-10863855D02*
X24904762Y-10825760D01*
X24904762Y-10825760D02*
X24866666Y-10787664D01*
X25780952Y-10406712D02*
X25704762Y-10368617D01*
X25704762Y-10368617D02*
X25666667Y-10330521D01*
X25666667Y-10330521D02*
X25628571Y-10254331D01*
X25628571Y-10254331D02*
X25628571Y-10216236D01*
X25628571Y-10216236D02*
X25666667Y-10140045D01*
X25666667Y-10140045D02*
X25704762Y-10101950D01*
X25704762Y-10101950D02*
X25780952Y-10063855D01*
X25780952Y-10063855D02*
X25933333Y-10063855D01*
X25933333Y-10063855D02*
X26009524Y-10101950D01*
X26009524Y-10101950D02*
X26047619Y-10140045D01*
X26047619Y-10140045D02*
X26085714Y-10216236D01*
X26085714Y-10216236D02*
X26085714Y-10254331D01*
X26085714Y-10254331D02*
X26047619Y-10330521D01*
X26047619Y-10330521D02*
X26009524Y-10368617D01*
X26009524Y-10368617D02*
X25933333Y-10406712D01*
X25933333Y-10406712D02*
X25780952Y-10406712D01*
X25780952Y-10406712D02*
X25704762Y-10444807D01*
X25704762Y-10444807D02*
X25666667Y-10482902D01*
X25666667Y-10482902D02*
X25628571Y-10559093D01*
X25628571Y-10559093D02*
X25628571Y-10711474D01*
X25628571Y-10711474D02*
X25666667Y-10787664D01*
X25666667Y-10787664D02*
X25704762Y-10825760D01*
X25704762Y-10825760D02*
X25780952Y-10863855D01*
X25780952Y-10863855D02*
X25933333Y-10863855D01*
X25933333Y-10863855D02*
X26009524Y-10825760D01*
X26009524Y-10825760D02*
X26047619Y-10787664D01*
X26047619Y-10787664D02*
X26085714Y-10711474D01*
X26085714Y-10711474D02*
X26085714Y-10559093D01*
X26085714Y-10559093D02*
X26047619Y-10482902D01*
X26047619Y-10482902D02*
X26009524Y-10444807D01*
X26009524Y-10444807D02*
X25933333Y-10406712D01*
X26428572Y-10559093D02*
X27038096Y-10559093D01*
X27838095Y-10863855D02*
X27380952Y-10863855D01*
X27609524Y-10863855D02*
X27609524Y-10063855D01*
X27609524Y-10063855D02*
X27533333Y-10178140D01*
X27533333Y-10178140D02*
X27457143Y-10254331D01*
X27457143Y-10254331D02*
X27380952Y-10292426D01*
X28600000Y-10101950D02*
X28523810Y-10063855D01*
X28523810Y-10063855D02*
X28409524Y-10063855D01*
X28409524Y-10063855D02*
X28295238Y-10101950D01*
X28295238Y-10101950D02*
X28219048Y-10178140D01*
X28219048Y-10178140D02*
X28180953Y-10254331D01*
X28180953Y-10254331D02*
X28142857Y-10406712D01*
X28142857Y-10406712D02*
X28142857Y-10520998D01*
X28142857Y-10520998D02*
X28180953Y-10673379D01*
X28180953Y-10673379D02*
X28219048Y-10749569D01*
X28219048Y-10749569D02*
X28295238Y-10825760D01*
X28295238Y-10825760D02*
X28409524Y-10863855D01*
X28409524Y-10863855D02*
X28485715Y-10863855D01*
X28485715Y-10863855D02*
X28600000Y-10825760D01*
X28600000Y-10825760D02*
X28638096Y-10787664D01*
X28638096Y-10787664D02*
X28638096Y-10520998D01*
X28638096Y-10520998D02*
X28485715Y-10520998D01*
X30161905Y-10025760D02*
X29476191Y-11054331D01*
X31457143Y-10863855D02*
X31000000Y-10863855D01*
X31228572Y-10863855D02*
X31228572Y-10063855D01*
X31228572Y-10063855D02*
X31152381Y-10178140D01*
X31152381Y-10178140D02*
X31076191Y-10254331D01*
X31076191Y-10254331D02*
X31000000Y-10292426D01*
X32219048Y-10101950D02*
X32142858Y-10063855D01*
X32142858Y-10063855D02*
X32028572Y-10063855D01*
X32028572Y-10063855D02*
X31914286Y-10101950D01*
X31914286Y-10101950D02*
X31838096Y-10178140D01*
X31838096Y-10178140D02*
X31800001Y-10254331D01*
X31800001Y-10254331D02*
X31761905Y-10406712D01*
X31761905Y-10406712D02*
X31761905Y-10520998D01*
X31761905Y-10520998D02*
X31800001Y-10673379D01*
X31800001Y-10673379D02*
X31838096Y-10749569D01*
X31838096Y-10749569D02*
X31914286Y-10825760D01*
X31914286Y-10825760D02*
X32028572Y-10863855D01*
X32028572Y-10863855D02*
X32104763Y-10863855D01*
X32104763Y-10863855D02*
X32219048Y-10825760D01*
X32219048Y-10825760D02*
X32257144Y-10787664D01*
X32257144Y-10787664D02*
X32257144Y-10520998D01*
X32257144Y-10520998D02*
X32104763Y-10520998D01*
X32866667Y-10444807D02*
X32980953Y-10482902D01*
X32980953Y-10482902D02*
X33019048Y-10520998D01*
X33019048Y-10520998D02*
X33057144Y-10597188D01*
X33057144Y-10597188D02*
X33057144Y-10711474D01*
X33057144Y-10711474D02*
X33019048Y-10787664D01*
X33019048Y-10787664D02*
X32980953Y-10825760D01*
X32980953Y-10825760D02*
X32904763Y-10863855D01*
X32904763Y-10863855D02*
X32600001Y-10863855D01*
X32600001Y-10863855D02*
X32600001Y-10063855D01*
X32600001Y-10063855D02*
X32866667Y-10063855D01*
X32866667Y-10063855D02*
X32942858Y-10101950D01*
X32942858Y-10101950D02*
X32980953Y-10140045D01*
X32980953Y-10140045D02*
X33019048Y-10216236D01*
X33019048Y-10216236D02*
X33019048Y-10292426D01*
X33019048Y-10292426D02*
X32980953Y-10368617D01*
X32980953Y-10368617D02*
X32942858Y-10406712D01*
X32942858Y-10406712D02*
X32866667Y-10444807D01*
X32866667Y-10444807D02*
X32600001Y-10444807D01*
X60257143Y-60063855D02*
X60257143Y-59263855D01*
X60257143Y-59263855D02*
X60561905Y-59263855D01*
X60561905Y-59263855D02*
X60638095Y-59301950D01*
X60638095Y-59301950D02*
X60676190Y-59340045D01*
X60676190Y-59340045D02*
X60714286Y-59416236D01*
X60714286Y-59416236D02*
X60714286Y-59530521D01*
X60714286Y-59530521D02*
X60676190Y-59606712D01*
X60676190Y-59606712D02*
X60638095Y-59644807D01*
X60638095Y-59644807D02*
X60561905Y-59682902D01*
X60561905Y-59682902D02*
X60257143Y-59682902D01*
X61514286Y-60063855D02*
X61247619Y-59682902D01*
X61057143Y-60063855D02*
X61057143Y-59263855D01*
X61057143Y-59263855D02*
X61361905Y-59263855D01*
X61361905Y-59263855D02*
X61438095Y-59301950D01*
X61438095Y-59301950D02*
X61476190Y-59340045D01*
X61476190Y-59340045D02*
X61514286Y-59416236D01*
X61514286Y-59416236D02*
X61514286Y-59530521D01*
X61514286Y-59530521D02*
X61476190Y-59606712D01*
X61476190Y-59606712D02*
X61438095Y-59644807D01*
X61438095Y-59644807D02*
X61361905Y-59682902D01*
X61361905Y-59682902D02*
X61057143Y-59682902D01*
X62009524Y-59263855D02*
X62161905Y-59263855D01*
X62161905Y-59263855D02*
X62238095Y-59301950D01*
X62238095Y-59301950D02*
X62314286Y-59378140D01*
X62314286Y-59378140D02*
X62352381Y-59530521D01*
X62352381Y-59530521D02*
X62352381Y-59797188D01*
X62352381Y-59797188D02*
X62314286Y-59949569D01*
X62314286Y-59949569D02*
X62238095Y-60025760D01*
X62238095Y-60025760D02*
X62161905Y-60063855D01*
X62161905Y-60063855D02*
X62009524Y-60063855D01*
X62009524Y-60063855D02*
X61933333Y-60025760D01*
X61933333Y-60025760D02*
X61857143Y-59949569D01*
X61857143Y-59949569D02*
X61819047Y-59797188D01*
X61819047Y-59797188D02*
X61819047Y-59530521D01*
X61819047Y-59530521D02*
X61857143Y-59378140D01*
X61857143Y-59378140D02*
X61933333Y-59301950D01*
X61933333Y-59301950D02*
X62009524Y-59263855D01*
X62580952Y-59263855D02*
X63038095Y-59263855D01*
X62809523Y-60063855D02*
X62809523Y-59263855D01*
X63457143Y-59263855D02*
X63609524Y-59263855D01*
X63609524Y-59263855D02*
X63685714Y-59301950D01*
X63685714Y-59301950D02*
X63761905Y-59378140D01*
X63761905Y-59378140D02*
X63800000Y-59530521D01*
X63800000Y-59530521D02*
X63800000Y-59797188D01*
X63800000Y-59797188D02*
X63761905Y-59949569D01*
X63761905Y-59949569D02*
X63685714Y-60025760D01*
X63685714Y-60025760D02*
X63609524Y-60063855D01*
X63609524Y-60063855D02*
X63457143Y-60063855D01*
X63457143Y-60063855D02*
X63380952Y-60025760D01*
X63380952Y-60025760D02*
X63304762Y-59949569D01*
X63304762Y-59949569D02*
X63266666Y-59797188D01*
X63266666Y-59797188D02*
X63266666Y-59530521D01*
X63266666Y-59530521D02*
X63304762Y-59378140D01*
X63304762Y-59378140D02*
X63380952Y-59301950D01*
X63380952Y-59301950D02*
X63457143Y-59263855D01*
X64142857Y-59759093D02*
X64752381Y-59759093D01*
X65399999Y-59644807D02*
X65514285Y-59682902D01*
X65514285Y-59682902D02*
X65552380Y-59720998D01*
X65552380Y-59720998D02*
X65590476Y-59797188D01*
X65590476Y-59797188D02*
X65590476Y-59911474D01*
X65590476Y-59911474D02*
X65552380Y-59987664D01*
X65552380Y-59987664D02*
X65514285Y-60025760D01*
X65514285Y-60025760D02*
X65438095Y-60063855D01*
X65438095Y-60063855D02*
X65133333Y-60063855D01*
X65133333Y-60063855D02*
X65133333Y-59263855D01*
X65133333Y-59263855D02*
X65399999Y-59263855D01*
X65399999Y-59263855D02*
X65476190Y-59301950D01*
X65476190Y-59301950D02*
X65514285Y-59340045D01*
X65514285Y-59340045D02*
X65552380Y-59416236D01*
X65552380Y-59416236D02*
X65552380Y-59492426D01*
X65552380Y-59492426D02*
X65514285Y-59568617D01*
X65514285Y-59568617D02*
X65476190Y-59606712D01*
X65476190Y-59606712D02*
X65399999Y-59644807D01*
X65399999Y-59644807D02*
X65133333Y-59644807D01*
X67114285Y-59225760D02*
X66428571Y-60254331D01*
X67990476Y-60063855D02*
X67990476Y-59263855D01*
X67990476Y-59263855D02*
X68180952Y-59263855D01*
X68180952Y-59263855D02*
X68295238Y-59301950D01*
X68295238Y-59301950D02*
X68371428Y-59378140D01*
X68371428Y-59378140D02*
X68409523Y-59454331D01*
X68409523Y-59454331D02*
X68447619Y-59606712D01*
X68447619Y-59606712D02*
X68447619Y-59720998D01*
X68447619Y-59720998D02*
X68409523Y-59873379D01*
X68409523Y-59873379D02*
X68371428Y-59949569D01*
X68371428Y-59949569D02*
X68295238Y-60025760D01*
X68295238Y-60025760D02*
X68180952Y-60063855D01*
X68180952Y-60063855D02*
X67990476Y-60063855D01*
X69057142Y-59644807D02*
X68790476Y-59644807D01*
X68790476Y-60063855D02*
X68790476Y-59263855D01*
X68790476Y-59263855D02*
X69171428Y-59263855D01*
X69476190Y-60063855D02*
X69476190Y-59263855D01*
X69476190Y-59263855D02*
X69742856Y-59835283D01*
X69742856Y-59835283D02*
X70009523Y-59263855D01*
X70009523Y-59263855D02*
X70009523Y-60063855D01*
X71000000Y-60063855D02*
X71000000Y-59263855D01*
X71000000Y-59644807D02*
X71457143Y-59644807D01*
X71457143Y-60063855D02*
X71457143Y-59263855D01*
X71990476Y-59263855D02*
X72142857Y-59263855D01*
X72142857Y-59263855D02*
X72219047Y-59301950D01*
X72219047Y-59301950D02*
X72295238Y-59378140D01*
X72295238Y-59378140D02*
X72333333Y-59530521D01*
X72333333Y-59530521D02*
X72333333Y-59797188D01*
X72333333Y-59797188D02*
X72295238Y-59949569D01*
X72295238Y-59949569D02*
X72219047Y-60025760D01*
X72219047Y-60025760D02*
X72142857Y-60063855D01*
X72142857Y-60063855D02*
X71990476Y-60063855D01*
X71990476Y-60063855D02*
X71914285Y-60025760D01*
X71914285Y-60025760D02*
X71838095Y-59949569D01*
X71838095Y-59949569D02*
X71799999Y-59797188D01*
X71799999Y-59797188D02*
X71799999Y-59530521D01*
X71799999Y-59530521D02*
X71838095Y-59378140D01*
X71838095Y-59378140D02*
X71914285Y-59301950D01*
X71914285Y-59301950D02*
X71990476Y-59263855D01*
X73057142Y-60063855D02*
X72676190Y-60063855D01*
X72676190Y-60063855D02*
X72676190Y-59263855D01*
X73323809Y-60063855D02*
X73323809Y-59263855D01*
X73323809Y-59263855D02*
X73514285Y-59263855D01*
X73514285Y-59263855D02*
X73628571Y-59301950D01*
X73628571Y-59301950D02*
X73704761Y-59378140D01*
X73704761Y-59378140D02*
X73742856Y-59454331D01*
X73742856Y-59454331D02*
X73780952Y-59606712D01*
X73780952Y-59606712D02*
X73780952Y-59720998D01*
X73780952Y-59720998D02*
X73742856Y-59873379D01*
X73742856Y-59873379D02*
X73704761Y-59949569D01*
X73704761Y-59949569D02*
X73628571Y-60025760D01*
X73628571Y-60025760D02*
X73514285Y-60063855D01*
X73514285Y-60063855D02*
X73323809Y-60063855D01*
D12*
X25880952Y-33699580D02*
X25833333Y-33747200D01*
X25833333Y-33747200D02*
X25690476Y-33794819D01*
X25690476Y-33794819D02*
X25595238Y-33794819D01*
X25595238Y-33794819D02*
X25452381Y-33747200D01*
X25452381Y-33747200D02*
X25357143Y-33651961D01*
X25357143Y-33651961D02*
X25309524Y-33556723D01*
X25309524Y-33556723D02*
X25261905Y-33366247D01*
X25261905Y-33366247D02*
X25261905Y-33223390D01*
X25261905Y-33223390D02*
X25309524Y-33032914D01*
X25309524Y-33032914D02*
X25357143Y-32937676D01*
X25357143Y-32937676D02*
X25452381Y-32842438D01*
X25452381Y-32842438D02*
X25595238Y-32794819D01*
X25595238Y-32794819D02*
X25690476Y-32794819D01*
X25690476Y-32794819D02*
X25833333Y-32842438D01*
X25833333Y-32842438D02*
X25880952Y-32890057D01*
X26833333Y-33794819D02*
X26261905Y-33794819D01*
X26547619Y-33794819D02*
X26547619Y-32794819D01*
X26547619Y-32794819D02*
X26452381Y-32937676D01*
X26452381Y-32937676D02*
X26357143Y-33032914D01*
X26357143Y-33032914D02*
X26261905Y-33080533D01*
X27452381Y-32794819D02*
X27547619Y-32794819D01*
X27547619Y-32794819D02*
X27642857Y-32842438D01*
X27642857Y-32842438D02*
X27690476Y-32890057D01*
X27690476Y-32890057D02*
X27738095Y-32985295D01*
X27738095Y-32985295D02*
X27785714Y-33175771D01*
X27785714Y-33175771D02*
X27785714Y-33413866D01*
X27785714Y-33413866D02*
X27738095Y-33604342D01*
X27738095Y-33604342D02*
X27690476Y-33699580D01*
X27690476Y-33699580D02*
X27642857Y-33747200D01*
X27642857Y-33747200D02*
X27547619Y-33794819D01*
X27547619Y-33794819D02*
X27452381Y-33794819D01*
X27452381Y-33794819D02*
X27357143Y-33747200D01*
X27357143Y-33747200D02*
X27309524Y-33699580D01*
X27309524Y-33699580D02*
X27261905Y-33604342D01*
X27261905Y-33604342D02*
X27214286Y-33413866D01*
X27214286Y-33413866D02*
X27214286Y-33175771D01*
X27214286Y-33175771D02*
X27261905Y-32985295D01*
X27261905Y-32985295D02*
X27309524Y-32890057D01*
X27309524Y-32890057D02*
X27357143Y-32842438D01*
X27357143Y-32842438D02*
X27452381Y-32794819D01*
X28690476Y-32794819D02*
X28214286Y-32794819D01*
X28214286Y-32794819D02*
X28166667Y-33271009D01*
X28166667Y-33271009D02*
X28214286Y-33223390D01*
X28214286Y-33223390D02*
X28309524Y-33175771D01*
X28309524Y-33175771D02*
X28547619Y-33175771D01*
X28547619Y-33175771D02*
X28642857Y-33223390D01*
X28642857Y-33223390D02*
X28690476Y-33271009D01*
X28690476Y-33271009D02*
X28738095Y-33366247D01*
X28738095Y-33366247D02*
X28738095Y-33604342D01*
X28738095Y-33604342D02*
X28690476Y-33699580D01*
X28690476Y-33699580D02*
X28642857Y-33747200D01*
X28642857Y-33747200D02*
X28547619Y-33794819D01*
X28547619Y-33794819D02*
X28309524Y-33794819D01*
X28309524Y-33794819D02*
X28214286Y-33747200D01*
X28214286Y-33747200D02*
X28166667Y-33699580D01*
X11238095Y-40154819D02*
X11238095Y-40964342D01*
X11238095Y-40964342D02*
X11285714Y-41059580D01*
X11285714Y-41059580D02*
X11333333Y-41107200D01*
X11333333Y-41107200D02*
X11428571Y-41154819D01*
X11428571Y-41154819D02*
X11619047Y-41154819D01*
X11619047Y-41154819D02*
X11714285Y-41107200D01*
X11714285Y-41107200D02*
X11761904Y-41059580D01*
X11761904Y-41059580D02*
X11809523Y-40964342D01*
X11809523Y-40964342D02*
X11809523Y-40154819D01*
X12714285Y-40154819D02*
X12523809Y-40154819D01*
X12523809Y-40154819D02*
X12428571Y-40202438D01*
X12428571Y-40202438D02*
X12380952Y-40250057D01*
X12380952Y-40250057D02*
X12285714Y-40392914D01*
X12285714Y-40392914D02*
X12238095Y-40583390D01*
X12238095Y-40583390D02*
X12238095Y-40964342D01*
X12238095Y-40964342D02*
X12285714Y-41059580D01*
X12285714Y-41059580D02*
X12333333Y-41107200D01*
X12333333Y-41107200D02*
X12428571Y-41154819D01*
X12428571Y-41154819D02*
X12619047Y-41154819D01*
X12619047Y-41154819D02*
X12714285Y-41107200D01*
X12714285Y-41107200D02*
X12761904Y-41059580D01*
X12761904Y-41059580D02*
X12809523Y-40964342D01*
X12809523Y-40964342D02*
X12809523Y-40726247D01*
X12809523Y-40726247D02*
X12761904Y-40631009D01*
X12761904Y-40631009D02*
X12714285Y-40583390D01*
X12714285Y-40583390D02*
X12619047Y-40535771D01*
X12619047Y-40535771D02*
X12428571Y-40535771D01*
X12428571Y-40535771D02*
X12333333Y-40583390D01*
X12333333Y-40583390D02*
X12285714Y-40631009D01*
X12285714Y-40631009D02*
X12238095Y-40726247D01*
X49274819Y-46333333D02*
X49989104Y-46333333D01*
X49989104Y-46333333D02*
X50131961Y-46380952D01*
X50131961Y-46380952D02*
X50227200Y-46476190D01*
X50227200Y-46476190D02*
X50274819Y-46619047D01*
X50274819Y-46619047D02*
X50274819Y-46714285D01*
X50274819Y-45809523D02*
X50274819Y-45619047D01*
X50274819Y-45619047D02*
X50227200Y-45523809D01*
X50227200Y-45523809D02*
X50179580Y-45476190D01*
X50179580Y-45476190D02*
X50036723Y-45380952D01*
X50036723Y-45380952D02*
X49846247Y-45333333D01*
X49846247Y-45333333D02*
X49465295Y-45333333D01*
X49465295Y-45333333D02*
X49370057Y-45380952D01*
X49370057Y-45380952D02*
X49322438Y-45428571D01*
X49322438Y-45428571D02*
X49274819Y-45523809D01*
X49274819Y-45523809D02*
X49274819Y-45714285D01*
X49274819Y-45714285D02*
X49322438Y-45809523D01*
X49322438Y-45809523D02*
X49370057Y-45857142D01*
X49370057Y-45857142D02*
X49465295Y-45904761D01*
X49465295Y-45904761D02*
X49703390Y-45904761D01*
X49703390Y-45904761D02*
X49798628Y-45857142D01*
X49798628Y-45857142D02*
X49846247Y-45809523D01*
X49846247Y-45809523D02*
X49893866Y-45714285D01*
X49893866Y-45714285D02*
X49893866Y-45523809D01*
X49893866Y-45523809D02*
X49846247Y-45428571D01*
X49846247Y-45428571D02*
X49798628Y-45380952D01*
X49798628Y-45380952D02*
X49703390Y-45333333D01*
X14196952Y-14934819D02*
X13863619Y-14458628D01*
X13625524Y-14934819D02*
X13625524Y-13934819D01*
X13625524Y-13934819D02*
X14006476Y-13934819D01*
X14006476Y-13934819D02*
X14101714Y-13982438D01*
X14101714Y-13982438D02*
X14149333Y-14030057D01*
X14149333Y-14030057D02*
X14196952Y-14125295D01*
X14196952Y-14125295D02*
X14196952Y-14268152D01*
X14196952Y-14268152D02*
X14149333Y-14363390D01*
X14149333Y-14363390D02*
X14101714Y-14411009D01*
X14101714Y-14411009D02*
X14006476Y-14458628D01*
X14006476Y-14458628D02*
X13625524Y-14458628D01*
X15149333Y-14934819D02*
X14577905Y-14934819D01*
X14863619Y-14934819D02*
X14863619Y-13934819D01*
X14863619Y-13934819D02*
X14768381Y-14077676D01*
X14768381Y-14077676D02*
X14673143Y-14172914D01*
X14673143Y-14172914D02*
X14577905Y-14220533D01*
X15768381Y-13934819D02*
X15863619Y-13934819D01*
X15863619Y-13934819D02*
X15958857Y-13982438D01*
X15958857Y-13982438D02*
X16006476Y-14030057D01*
X16006476Y-14030057D02*
X16054095Y-14125295D01*
X16054095Y-14125295D02*
X16101714Y-14315771D01*
X16101714Y-14315771D02*
X16101714Y-14553866D01*
X16101714Y-14553866D02*
X16054095Y-14744342D01*
X16054095Y-14744342D02*
X16006476Y-14839580D01*
X16006476Y-14839580D02*
X15958857Y-14887200D01*
X15958857Y-14887200D02*
X15863619Y-14934819D01*
X15863619Y-14934819D02*
X15768381Y-14934819D01*
X15768381Y-14934819D02*
X15673143Y-14887200D01*
X15673143Y-14887200D02*
X15625524Y-14839580D01*
X15625524Y-14839580D02*
X15577905Y-14744342D01*
X15577905Y-14744342D02*
X15530286Y-14553866D01*
X15530286Y-14553866D02*
X15530286Y-14315771D01*
X15530286Y-14315771D02*
X15577905Y-14125295D01*
X15577905Y-14125295D02*
X15625524Y-14030057D01*
X15625524Y-14030057D02*
X15673143Y-13982438D01*
X15673143Y-13982438D02*
X15768381Y-13934819D01*
X16482667Y-14030057D02*
X16530286Y-13982438D01*
X16530286Y-13982438D02*
X16625524Y-13934819D01*
X16625524Y-13934819D02*
X16863619Y-13934819D01*
X16863619Y-13934819D02*
X16958857Y-13982438D01*
X16958857Y-13982438D02*
X17006476Y-14030057D01*
X17006476Y-14030057D02*
X17054095Y-14125295D01*
X17054095Y-14125295D02*
X17054095Y-14220533D01*
X17054095Y-14220533D02*
X17006476Y-14363390D01*
X17006476Y-14363390D02*
X16435048Y-14934819D01*
X16435048Y-14934819D02*
X17054095Y-14934819D01*
X36954819Y-27666666D02*
X36478628Y-27999999D01*
X36954819Y-28238094D02*
X35954819Y-28238094D01*
X35954819Y-28238094D02*
X35954819Y-27857142D01*
X35954819Y-27857142D02*
X36002438Y-27761904D01*
X36002438Y-27761904D02*
X36050057Y-27714285D01*
X36050057Y-27714285D02*
X36145295Y-27666666D01*
X36145295Y-27666666D02*
X36288152Y-27666666D01*
X36288152Y-27666666D02*
X36383390Y-27714285D01*
X36383390Y-27714285D02*
X36431009Y-27761904D01*
X36431009Y-27761904D02*
X36478628Y-27857142D01*
X36478628Y-27857142D02*
X36478628Y-28238094D01*
X36954819Y-27238094D02*
X35954819Y-27238094D01*
X35954819Y-27238094D02*
X36954819Y-26666666D01*
X36954819Y-26666666D02*
X35954819Y-26666666D01*
X36954819Y-25666666D02*
X36954819Y-26238094D01*
X36954819Y-25952380D02*
X35954819Y-25952380D01*
X35954819Y-25952380D02*
X36097676Y-26047618D01*
X36097676Y-26047618D02*
X36192914Y-26142856D01*
X36192914Y-26142856D02*
X36240533Y-26238094D01*
X35954819Y-25047618D02*
X35954819Y-24952380D01*
X35954819Y-24952380D02*
X36002438Y-24857142D01*
X36002438Y-24857142D02*
X36050057Y-24809523D01*
X36050057Y-24809523D02*
X36145295Y-24761904D01*
X36145295Y-24761904D02*
X36335771Y-24714285D01*
X36335771Y-24714285D02*
X36573866Y-24714285D01*
X36573866Y-24714285D02*
X36764342Y-24761904D01*
X36764342Y-24761904D02*
X36859580Y-24809523D01*
X36859580Y-24809523D02*
X36907200Y-24857142D01*
X36907200Y-24857142D02*
X36954819Y-24952380D01*
X36954819Y-24952380D02*
X36954819Y-25047618D01*
X36954819Y-25047618D02*
X36907200Y-25142856D01*
X36907200Y-25142856D02*
X36859580Y-25190475D01*
X36859580Y-25190475D02*
X36764342Y-25238094D01*
X36764342Y-25238094D02*
X36573866Y-25285713D01*
X36573866Y-25285713D02*
X36335771Y-25285713D01*
X36335771Y-25285713D02*
X36145295Y-25238094D01*
X36145295Y-25238094D02*
X36050057Y-25190475D01*
X36050057Y-25190475D02*
X36002438Y-25142856D01*
X36002438Y-25142856D02*
X35954819Y-25047618D01*
D13*
X10160904Y-17821574D02*
X10528599Y-17821574D01*
X9756439Y-18078960D02*
X10160904Y-17821574D01*
X10160904Y-17821574D02*
X9756439Y-17564187D01*
X10528599Y-16902336D02*
X10528599Y-17343570D01*
X10528599Y-17122953D02*
X9756439Y-17122953D01*
X9756439Y-17122953D02*
X9866748Y-17196492D01*
X9866748Y-17196492D02*
X9940287Y-17270031D01*
X9940287Y-17270031D02*
X9977056Y-17343570D01*
D12*
X36954819Y-15190476D02*
X36478628Y-15523809D01*
X36954819Y-15761904D02*
X35954819Y-15761904D01*
X35954819Y-15761904D02*
X35954819Y-15380952D01*
X35954819Y-15380952D02*
X36002438Y-15285714D01*
X36002438Y-15285714D02*
X36050057Y-15238095D01*
X36050057Y-15238095D02*
X36145295Y-15190476D01*
X36145295Y-15190476D02*
X36288152Y-15190476D01*
X36288152Y-15190476D02*
X36383390Y-15238095D01*
X36383390Y-15238095D02*
X36431009Y-15285714D01*
X36431009Y-15285714D02*
X36478628Y-15380952D01*
X36478628Y-15380952D02*
X36478628Y-15761904D01*
X36954819Y-14761904D02*
X35954819Y-14761904D01*
X35954819Y-14761904D02*
X36954819Y-14190476D01*
X36954819Y-14190476D02*
X35954819Y-14190476D01*
X35954819Y-13809523D02*
X35954819Y-13142857D01*
X35954819Y-13142857D02*
X36954819Y-13571428D01*
X36954819Y-19190476D02*
X36478628Y-19523809D01*
X36954819Y-19761904D02*
X35954819Y-19761904D01*
X35954819Y-19761904D02*
X35954819Y-19380952D01*
X35954819Y-19380952D02*
X36002438Y-19285714D01*
X36002438Y-19285714D02*
X36050057Y-19238095D01*
X36050057Y-19238095D02*
X36145295Y-19190476D01*
X36145295Y-19190476D02*
X36288152Y-19190476D01*
X36288152Y-19190476D02*
X36383390Y-19238095D01*
X36383390Y-19238095D02*
X36431009Y-19285714D01*
X36431009Y-19285714D02*
X36478628Y-19380952D01*
X36478628Y-19380952D02*
X36478628Y-19761904D01*
X36954819Y-18761904D02*
X35954819Y-18761904D01*
X35954819Y-18761904D02*
X36954819Y-18190476D01*
X36954819Y-18190476D02*
X35954819Y-18190476D01*
X36383390Y-17571428D02*
X36335771Y-17666666D01*
X36335771Y-17666666D02*
X36288152Y-17714285D01*
X36288152Y-17714285D02*
X36192914Y-17761904D01*
X36192914Y-17761904D02*
X36145295Y-17761904D01*
X36145295Y-17761904D02*
X36050057Y-17714285D01*
X36050057Y-17714285D02*
X36002438Y-17666666D01*
X36002438Y-17666666D02*
X35954819Y-17571428D01*
X35954819Y-17571428D02*
X35954819Y-17380952D01*
X35954819Y-17380952D02*
X36002438Y-17285714D01*
X36002438Y-17285714D02*
X36050057Y-17238095D01*
X36050057Y-17238095D02*
X36145295Y-17190476D01*
X36145295Y-17190476D02*
X36192914Y-17190476D01*
X36192914Y-17190476D02*
X36288152Y-17238095D01*
X36288152Y-17238095D02*
X36335771Y-17285714D01*
X36335771Y-17285714D02*
X36383390Y-17380952D01*
X36383390Y-17380952D02*
X36383390Y-17571428D01*
X36383390Y-17571428D02*
X36431009Y-17666666D01*
X36431009Y-17666666D02*
X36478628Y-17714285D01*
X36478628Y-17714285D02*
X36573866Y-17761904D01*
X36573866Y-17761904D02*
X36764342Y-17761904D01*
X36764342Y-17761904D02*
X36859580Y-17714285D01*
X36859580Y-17714285D02*
X36907200Y-17666666D01*
X36907200Y-17666666D02*
X36954819Y-17571428D01*
X36954819Y-17571428D02*
X36954819Y-17380952D01*
X36954819Y-17380952D02*
X36907200Y-17285714D01*
X36907200Y-17285714D02*
X36859580Y-17238095D01*
X36859580Y-17238095D02*
X36764342Y-17190476D01*
X36764342Y-17190476D02*
X36573866Y-17190476D01*
X36573866Y-17190476D02*
X36478628Y-17238095D01*
X36478628Y-17238095D02*
X36431009Y-17285714D01*
X36431009Y-17285714D02*
X36383390Y-17380952D01*
X14196952Y-13198580D02*
X14149333Y-13246200D01*
X14149333Y-13246200D02*
X14006476Y-13293819D01*
X14006476Y-13293819D02*
X13911238Y-13293819D01*
X13911238Y-13293819D02*
X13768381Y-13246200D01*
X13768381Y-13246200D02*
X13673143Y-13150961D01*
X13673143Y-13150961D02*
X13625524Y-13055723D01*
X13625524Y-13055723D02*
X13577905Y-12865247D01*
X13577905Y-12865247D02*
X13577905Y-12722390D01*
X13577905Y-12722390D02*
X13625524Y-12531914D01*
X13625524Y-12531914D02*
X13673143Y-12436676D01*
X13673143Y-12436676D02*
X13768381Y-12341438D01*
X13768381Y-12341438D02*
X13911238Y-12293819D01*
X13911238Y-12293819D02*
X14006476Y-12293819D01*
X14006476Y-12293819D02*
X14149333Y-12341438D01*
X14149333Y-12341438D02*
X14196952Y-12389057D01*
X15149333Y-13293819D02*
X14577905Y-13293819D01*
X14863619Y-13293819D02*
X14863619Y-12293819D01*
X14863619Y-12293819D02*
X14768381Y-12436676D01*
X14768381Y-12436676D02*
X14673143Y-12531914D01*
X14673143Y-12531914D02*
X14577905Y-12579533D01*
X15768381Y-12293819D02*
X15863619Y-12293819D01*
X15863619Y-12293819D02*
X15958857Y-12341438D01*
X15958857Y-12341438D02*
X16006476Y-12389057D01*
X16006476Y-12389057D02*
X16054095Y-12484295D01*
X16054095Y-12484295D02*
X16101714Y-12674771D01*
X16101714Y-12674771D02*
X16101714Y-12912866D01*
X16101714Y-12912866D02*
X16054095Y-13103342D01*
X16054095Y-13103342D02*
X16006476Y-13198580D01*
X16006476Y-13198580D02*
X15958857Y-13246200D01*
X15958857Y-13246200D02*
X15863619Y-13293819D01*
X15863619Y-13293819D02*
X15768381Y-13293819D01*
X15768381Y-13293819D02*
X15673143Y-13246200D01*
X15673143Y-13246200D02*
X15625524Y-13198580D01*
X15625524Y-13198580D02*
X15577905Y-13103342D01*
X15577905Y-13103342D02*
X15530286Y-12912866D01*
X15530286Y-12912866D02*
X15530286Y-12674771D01*
X15530286Y-12674771D02*
X15577905Y-12484295D01*
X15577905Y-12484295D02*
X15625524Y-12389057D01*
X15625524Y-12389057D02*
X15673143Y-12341438D01*
X15673143Y-12341438D02*
X15768381Y-12293819D01*
X16482667Y-12389057D02*
X16530286Y-12341438D01*
X16530286Y-12341438D02*
X16625524Y-12293819D01*
X16625524Y-12293819D02*
X16863619Y-12293819D01*
X16863619Y-12293819D02*
X16958857Y-12341438D01*
X16958857Y-12341438D02*
X17006476Y-12389057D01*
X17006476Y-12389057D02*
X17054095Y-12484295D01*
X17054095Y-12484295D02*
X17054095Y-12579533D01*
X17054095Y-12579533D02*
X17006476Y-12722390D01*
X17006476Y-12722390D02*
X16435048Y-13293819D01*
X16435048Y-13293819D02*
X17054095Y-13293819D01*
X29880952Y-33179580D02*
X29833333Y-33227200D01*
X29833333Y-33227200D02*
X29690476Y-33274819D01*
X29690476Y-33274819D02*
X29595238Y-33274819D01*
X29595238Y-33274819D02*
X29452381Y-33227200D01*
X29452381Y-33227200D02*
X29357143Y-33131961D01*
X29357143Y-33131961D02*
X29309524Y-33036723D01*
X29309524Y-33036723D02*
X29261905Y-32846247D01*
X29261905Y-32846247D02*
X29261905Y-32703390D01*
X29261905Y-32703390D02*
X29309524Y-32512914D01*
X29309524Y-32512914D02*
X29357143Y-32417676D01*
X29357143Y-32417676D02*
X29452381Y-32322438D01*
X29452381Y-32322438D02*
X29595238Y-32274819D01*
X29595238Y-32274819D02*
X29690476Y-32274819D01*
X29690476Y-32274819D02*
X29833333Y-32322438D01*
X29833333Y-32322438D02*
X29880952Y-32370057D01*
X30833333Y-33274819D02*
X30261905Y-33274819D01*
X30547619Y-33274819D02*
X30547619Y-32274819D01*
X30547619Y-32274819D02*
X30452381Y-32417676D01*
X30452381Y-32417676D02*
X30357143Y-32512914D01*
X30357143Y-32512914D02*
X30261905Y-32560533D01*
X31452381Y-32274819D02*
X31547619Y-32274819D01*
X31547619Y-32274819D02*
X31642857Y-32322438D01*
X31642857Y-32322438D02*
X31690476Y-32370057D01*
X31690476Y-32370057D02*
X31738095Y-32465295D01*
X31738095Y-32465295D02*
X31785714Y-32655771D01*
X31785714Y-32655771D02*
X31785714Y-32893866D01*
X31785714Y-32893866D02*
X31738095Y-33084342D01*
X31738095Y-33084342D02*
X31690476Y-33179580D01*
X31690476Y-33179580D02*
X31642857Y-33227200D01*
X31642857Y-33227200D02*
X31547619Y-33274819D01*
X31547619Y-33274819D02*
X31452381Y-33274819D01*
X31452381Y-33274819D02*
X31357143Y-33227200D01*
X31357143Y-33227200D02*
X31309524Y-33179580D01*
X31309524Y-33179580D02*
X31261905Y-33084342D01*
X31261905Y-33084342D02*
X31214286Y-32893866D01*
X31214286Y-32893866D02*
X31214286Y-32655771D01*
X31214286Y-32655771D02*
X31261905Y-32465295D01*
X31261905Y-32465295D02*
X31309524Y-32370057D01*
X31309524Y-32370057D02*
X31357143Y-32322438D01*
X31357143Y-32322438D02*
X31452381Y-32274819D01*
X32642857Y-32274819D02*
X32452381Y-32274819D01*
X32452381Y-32274819D02*
X32357143Y-32322438D01*
X32357143Y-32322438D02*
X32309524Y-32370057D01*
X32309524Y-32370057D02*
X32214286Y-32512914D01*
X32214286Y-32512914D02*
X32166667Y-32703390D01*
X32166667Y-32703390D02*
X32166667Y-33084342D01*
X32166667Y-33084342D02*
X32214286Y-33179580D01*
X32214286Y-33179580D02*
X32261905Y-33227200D01*
X32261905Y-33227200D02*
X32357143Y-33274819D01*
X32357143Y-33274819D02*
X32547619Y-33274819D01*
X32547619Y-33274819D02*
X32642857Y-33227200D01*
X32642857Y-33227200D02*
X32690476Y-33179580D01*
X32690476Y-33179580D02*
X32738095Y-33084342D01*
X32738095Y-33084342D02*
X32738095Y-32846247D01*
X32738095Y-32846247D02*
X32690476Y-32751009D01*
X32690476Y-32751009D02*
X32642857Y-32703390D01*
X32642857Y-32703390D02*
X32547619Y-32655771D01*
X32547619Y-32655771D02*
X32357143Y-32655771D01*
X32357143Y-32655771D02*
X32261905Y-32703390D01*
X32261905Y-32703390D02*
X32214286Y-32751009D01*
X32214286Y-32751009D02*
X32166667Y-32846247D01*
X36954819Y-23190476D02*
X36478628Y-23523809D01*
X36954819Y-23761904D02*
X35954819Y-23761904D01*
X35954819Y-23761904D02*
X35954819Y-23380952D01*
X35954819Y-23380952D02*
X36002438Y-23285714D01*
X36002438Y-23285714D02*
X36050057Y-23238095D01*
X36050057Y-23238095D02*
X36145295Y-23190476D01*
X36145295Y-23190476D02*
X36288152Y-23190476D01*
X36288152Y-23190476D02*
X36383390Y-23238095D01*
X36383390Y-23238095D02*
X36431009Y-23285714D01*
X36431009Y-23285714D02*
X36478628Y-23380952D01*
X36478628Y-23380952D02*
X36478628Y-23761904D01*
X36954819Y-22761904D02*
X35954819Y-22761904D01*
X35954819Y-22761904D02*
X36954819Y-22190476D01*
X36954819Y-22190476D02*
X35954819Y-22190476D01*
X36954819Y-21666666D02*
X36954819Y-21476190D01*
X36954819Y-21476190D02*
X36907200Y-21380952D01*
X36907200Y-21380952D02*
X36859580Y-21333333D01*
X36859580Y-21333333D02*
X36716723Y-21238095D01*
X36716723Y-21238095D02*
X36526247Y-21190476D01*
X36526247Y-21190476D02*
X36145295Y-21190476D01*
X36145295Y-21190476D02*
X36050057Y-21238095D01*
X36050057Y-21238095D02*
X36002438Y-21285714D01*
X36002438Y-21285714D02*
X35954819Y-21380952D01*
X35954819Y-21380952D02*
X35954819Y-21571428D01*
X35954819Y-21571428D02*
X36002438Y-21666666D01*
X36002438Y-21666666D02*
X36050057Y-21714285D01*
X36050057Y-21714285D02*
X36145295Y-21761904D01*
X36145295Y-21761904D02*
X36383390Y-21761904D01*
X36383390Y-21761904D02*
X36478628Y-21714285D01*
X36478628Y-21714285D02*
X36526247Y-21666666D01*
X36526247Y-21666666D02*
X36573866Y-21571428D01*
X36573866Y-21571428D02*
X36573866Y-21380952D01*
X36573866Y-21380952D02*
X36526247Y-21285714D01*
X36526247Y-21285714D02*
X36478628Y-21238095D01*
X36478628Y-21238095D02*
X36383390Y-21190476D01*
X14196952Y-16500580D02*
X14149333Y-16548200D01*
X14149333Y-16548200D02*
X14006476Y-16595819D01*
X14006476Y-16595819D02*
X13911238Y-16595819D01*
X13911238Y-16595819D02*
X13768381Y-16548200D01*
X13768381Y-16548200D02*
X13673143Y-16452961D01*
X13673143Y-16452961D02*
X13625524Y-16357723D01*
X13625524Y-16357723D02*
X13577905Y-16167247D01*
X13577905Y-16167247D02*
X13577905Y-16024390D01*
X13577905Y-16024390D02*
X13625524Y-15833914D01*
X13625524Y-15833914D02*
X13673143Y-15738676D01*
X13673143Y-15738676D02*
X13768381Y-15643438D01*
X13768381Y-15643438D02*
X13911238Y-15595819D01*
X13911238Y-15595819D02*
X14006476Y-15595819D01*
X14006476Y-15595819D02*
X14149333Y-15643438D01*
X14149333Y-15643438D02*
X14196952Y-15691057D01*
X15149333Y-16595819D02*
X14577905Y-16595819D01*
X14863619Y-16595819D02*
X14863619Y-15595819D01*
X14863619Y-15595819D02*
X14768381Y-15738676D01*
X14768381Y-15738676D02*
X14673143Y-15833914D01*
X14673143Y-15833914D02*
X14577905Y-15881533D01*
X15768381Y-15595819D02*
X15863619Y-15595819D01*
X15863619Y-15595819D02*
X15958857Y-15643438D01*
X15958857Y-15643438D02*
X16006476Y-15691057D01*
X16006476Y-15691057D02*
X16054095Y-15786295D01*
X16054095Y-15786295D02*
X16101714Y-15976771D01*
X16101714Y-15976771D02*
X16101714Y-16214866D01*
X16101714Y-16214866D02*
X16054095Y-16405342D01*
X16054095Y-16405342D02*
X16006476Y-16500580D01*
X16006476Y-16500580D02*
X15958857Y-16548200D01*
X15958857Y-16548200D02*
X15863619Y-16595819D01*
X15863619Y-16595819D02*
X15768381Y-16595819D01*
X15768381Y-16595819D02*
X15673143Y-16548200D01*
X15673143Y-16548200D02*
X15625524Y-16500580D01*
X15625524Y-16500580D02*
X15577905Y-16405342D01*
X15577905Y-16405342D02*
X15530286Y-16214866D01*
X15530286Y-16214866D02*
X15530286Y-15976771D01*
X15530286Y-15976771D02*
X15577905Y-15786295D01*
X15577905Y-15786295D02*
X15625524Y-15691057D01*
X15625524Y-15691057D02*
X15673143Y-15643438D01*
X15673143Y-15643438D02*
X15768381Y-15595819D01*
X16435048Y-15595819D02*
X17054095Y-15595819D01*
X17054095Y-15595819D02*
X16720762Y-15976771D01*
X16720762Y-15976771D02*
X16863619Y-15976771D01*
X16863619Y-15976771D02*
X16958857Y-16024390D01*
X16958857Y-16024390D02*
X17006476Y-16072009D01*
X17006476Y-16072009D02*
X17054095Y-16167247D01*
X17054095Y-16167247D02*
X17054095Y-16405342D01*
X17054095Y-16405342D02*
X17006476Y-16500580D01*
X17006476Y-16500580D02*
X16958857Y-16548200D01*
X16958857Y-16548200D02*
X16863619Y-16595819D01*
X16863619Y-16595819D02*
X16577905Y-16595819D01*
X16577905Y-16595819D02*
X16482667Y-16548200D01*
X16482667Y-16548200D02*
X16435048Y-16500580D01*
D14*
X36498249Y-32062027D02*
X36498249Y-32410370D01*
X36498249Y-32236199D02*
X35888649Y-32236199D01*
X35888649Y-32236199D02*
X35975735Y-32294256D01*
X35975735Y-32294256D02*
X36033792Y-32352313D01*
X36033792Y-32352313D02*
X36062821Y-32410370D01*
X37464538Y-31365342D02*
X37464538Y-31075057D01*
X37638709Y-31423399D02*
X37029109Y-31220199D01*
X37029109Y-31220199D02*
X37638709Y-31016999D01*
X17448249Y-32047513D02*
X17448249Y-32395856D01*
X17448249Y-32221685D02*
X16838649Y-32221685D01*
X16838649Y-32221685D02*
X16925735Y-32279742D01*
X16925735Y-32279742D02*
X16983792Y-32337799D01*
X16983792Y-32337799D02*
X17012821Y-32395856D01*
X16838649Y-31525000D02*
X16838649Y-31641114D01*
X16838649Y-31641114D02*
X16867678Y-31699171D01*
X16867678Y-31699171D02*
X16896706Y-31728200D01*
X16896706Y-31728200D02*
X16983792Y-31786257D01*
X16983792Y-31786257D02*
X17099906Y-31815285D01*
X17099906Y-31815285D02*
X17332135Y-31815285D01*
X17332135Y-31815285D02*
X17390192Y-31786257D01*
X17390192Y-31786257D02*
X17419221Y-31757228D01*
X17419221Y-31757228D02*
X17448249Y-31699171D01*
X17448249Y-31699171D02*
X17448249Y-31583057D01*
X17448249Y-31583057D02*
X17419221Y-31525000D01*
X17419221Y-31525000D02*
X17390192Y-31495971D01*
X17390192Y-31495971D02*
X17332135Y-31466942D01*
X17332135Y-31466942D02*
X17186992Y-31466942D01*
X17186992Y-31466942D02*
X17128935Y-31495971D01*
X17128935Y-31495971D02*
X17099906Y-31525000D01*
X17099906Y-31525000D02*
X17070878Y-31583057D01*
X17070878Y-31583057D02*
X17070878Y-31699171D01*
X17070878Y-31699171D02*
X17099906Y-31757228D01*
X17099906Y-31757228D02*
X17128935Y-31786257D01*
X17128935Y-31786257D02*
X17186992Y-31815285D01*
X37029109Y-12344370D02*
X37029109Y-11996028D01*
X37638709Y-12170199D02*
X37029109Y-12170199D01*
D11*
%TO.C,C3*%
X77840000Y-5607836D02*
X77840000Y-5392164D01*
X78560000Y-5607836D02*
X78560000Y-5392164D01*
D15*
%TO.C,D2*%
X75750000Y-4290000D02*
G75*
G02*
X75650000Y-4290000I-50000J0D01*
G01*
X75650000Y-4290000D02*
G75*
G02*
X75750000Y-4290000I50000J0D01*
G01*
D11*
%TO.C,C27*%
X76640000Y-13307836D02*
X76640000Y-13092164D01*
X77360000Y-13307836D02*
X77360000Y-13092164D01*
%TO.C,R27*%
X51846359Y-32620000D02*
X52153641Y-32620000D01*
X51846359Y-33380000D02*
X52153641Y-33380000D01*
%TO.C,R32*%
X51846359Y-37120000D02*
X52153641Y-37120000D01*
X51846359Y-37880000D02*
X52153641Y-37880000D01*
%TO.C,R30*%
X57846359Y-32620000D02*
X58153641Y-32620000D01*
X57846359Y-33380000D02*
X58153641Y-33380000D01*
%TO.C,C14*%
X11892164Y-62640000D02*
X12107836Y-62640000D01*
X11892164Y-63360000D02*
X12107836Y-63360000D01*
%TO.C,R23*%
X16846359Y-64620000D02*
X17153641Y-64620000D01*
X16846359Y-65380000D02*
X17153641Y-65380000D01*
%TO.C,U4*%
X57490000Y-66860000D02*
X59490000Y-66860000D01*
X57500000Y-69140000D02*
X59500000Y-69140000D01*
X57130000Y-66930000D02*
X56850000Y-66930000D01*
X57130000Y-66650000D01*
X57130000Y-66930000D01*
G36*
X57130000Y-66930000D02*
G01*
X56850000Y-66930000D01*
X57130000Y-66650000D01*
X57130000Y-66930000D01*
G37*
%TO.C,R15*%
X57846359Y-61120000D02*
X58153641Y-61120000D01*
X57846359Y-61880000D02*
X58153641Y-61880000D01*
%TO.C,C23*%
X18892164Y-47140000D02*
X19107836Y-47140000D01*
X18892164Y-47860000D02*
X19107836Y-47860000D01*
%TO.C,RN3*%
X43320000Y-18000000D02*
X43320000Y-19000000D01*
X46680000Y-18000000D02*
X46680000Y-19000000D01*
%TO.C,U2*%
X67590000Y-6590000D02*
X68065000Y-6590000D01*
X67590000Y-7065000D02*
X67590000Y-6590000D01*
X67590000Y-9810000D02*
X67590000Y-9335000D01*
X68065000Y-9810000D02*
X67590000Y-9810000D01*
X70335000Y-6590000D02*
X70810000Y-6590000D01*
X70810000Y-6590000D02*
X70810000Y-7065000D01*
X70810000Y-9335000D02*
X70810000Y-9810000D01*
X70810000Y-9810000D02*
X70335000Y-9810000D01*
X67060000Y-7450000D02*
X66730000Y-7690000D01*
X66730000Y-7210000D01*
X67060000Y-7450000D01*
G36*
X67060000Y-7450000D02*
G01*
X66730000Y-7690000D01*
X66730000Y-7210000D01*
X67060000Y-7450000D01*
G37*
%TO.C,R10*%
X70120000Y-3353641D02*
X70120000Y-3046359D01*
X70880000Y-3353641D02*
X70880000Y-3046359D01*
%TO.C,C4*%
X66092164Y-12640000D02*
X66307836Y-12640000D01*
X66092164Y-13360000D02*
X66307836Y-13360000D01*
%TO.C,R21*%
X56846359Y-70620000D02*
X57153641Y-70620000D01*
X56846359Y-71380000D02*
X57153641Y-71380000D01*
%TO.C,L2*%
X52390000Y-69610000D02*
X52390000Y-66390000D01*
X55610000Y-66390000D02*
X55610000Y-69610000D01*
%TO.C,D3*%
X20000000Y-60210000D02*
X20000000Y-56350000D01*
X20000000Y-60210000D02*
X22000000Y-60210000D01*
X22000000Y-60210000D02*
X22000000Y-56350000D01*
%TO.C,RN6*%
X43320000Y-30000000D02*
X43320000Y-31000000D01*
X46680000Y-30000000D02*
X46680000Y-31000000D01*
%TO.C,C105*%
X26892164Y-34140000D02*
X27107836Y-34140000D01*
X26892164Y-34860000D02*
X27107836Y-34860000D01*
%TO.C,R107*%
X46446359Y-33420000D02*
X46753641Y-33420000D01*
X46446359Y-34180000D02*
X46753641Y-34180000D01*
%TO.C,C13*%
X22440000Y-62607836D02*
X22440000Y-62392164D01*
X23160000Y-62607836D02*
X23160000Y-62392164D01*
%TO.C,C15*%
X13892164Y-62640000D02*
X14107836Y-62640000D01*
X13892164Y-63360000D02*
X14107836Y-63360000D01*
%TO.C,U6*%
X10390000Y-41890000D02*
X10865000Y-41890000D01*
X10390000Y-42365000D02*
X10390000Y-41890000D01*
X10390000Y-45110000D02*
X10390000Y-44635000D01*
X10865000Y-45110000D02*
X10390000Y-45110000D01*
X13135000Y-41890000D02*
X13610000Y-41890000D01*
X13610000Y-41890000D02*
X13610000Y-42365000D01*
X13610000Y-44635000D02*
X13610000Y-45110000D01*
X13610000Y-45110000D02*
X13135000Y-45110000D01*
X9880000Y-42750000D02*
X9550000Y-42990000D01*
X9550000Y-42510000D01*
X9880000Y-42750000D01*
G36*
X9880000Y-42750000D02*
G01*
X9550000Y-42990000D01*
X9550000Y-42510000D01*
X9880000Y-42750000D01*
G37*
%TO.C,J9*%
X51180000Y-50590000D02*
X51180000Y-49730000D01*
X52550000Y-52070000D02*
X57000000Y-52070000D01*
X58400000Y-52070000D02*
X60700000Y-52070000D01*
X62100000Y-52070000D02*
X62820000Y-52070000D01*
X62820000Y-39890000D02*
X53000000Y-39890000D01*
X62820000Y-41120000D02*
X62820000Y-39890000D01*
X62820000Y-47090000D02*
X62820000Y-43420000D01*
X62820000Y-52070000D02*
X62820000Y-49390000D01*
%TO.C,C9*%
X61140000Y-61107836D02*
X61140000Y-60892164D01*
X61860000Y-61107836D02*
X61860000Y-60892164D01*
%TO.C,R29*%
X55846359Y-32620000D02*
X56153641Y-32620000D01*
X55846359Y-33380000D02*
X56153641Y-33380000D01*
%TO.C,R28*%
X53846359Y-32620000D02*
X54153641Y-32620000D01*
X53846359Y-33380000D02*
X54153641Y-33380000D01*
%TO.C,C2*%
X66092164Y-2940000D02*
X66307836Y-2940000D01*
X66092164Y-3660000D02*
X66307836Y-3660000D01*
%TO.C,R104*%
X46446359Y-36820000D02*
X46753641Y-36820000D01*
X46446359Y-37580000D02*
X46753641Y-37580000D01*
%TO.C,R20*%
X53846359Y-62120000D02*
X54153641Y-62120000D01*
X53846359Y-62880000D02*
X54153641Y-62880000D01*
%TO.C,R102*%
X15162359Y-15270000D02*
X15469641Y-15270000D01*
X15162359Y-16030000D02*
X15469641Y-16030000D01*
D15*
%TO.C,D1*%
X72250000Y-4290000D02*
G75*
G02*
X72150000Y-4290000I-50000J0D01*
G01*
X72150000Y-4290000D02*
G75*
G02*
X72250000Y-4290000I50000J0D01*
G01*
D11*
%TO.C,RN10*%
X37620000Y-26000000D02*
X37620000Y-27000000D01*
X40980000Y-26000000D02*
X40980000Y-27000000D01*
D16*
%TO.C,U3*%
X56750000Y-56250000D02*
X57150000Y-56250000D01*
D11*
%TO.C,R17*%
X55846359Y-53620000D02*
X56153641Y-53620000D01*
X55846359Y-54380000D02*
X56153641Y-54380000D01*
%TO.C,R109*%
X48846359Y-33420000D02*
X49153641Y-33420000D01*
X48846359Y-34180000D02*
X49153641Y-34180000D01*
%TO.C,C21*%
X15892164Y-39640000D02*
X16107836Y-39640000D01*
X15892164Y-40360000D02*
X16107836Y-40360000D01*
D16*
%TO.C,J5*%
X48250000Y-26500000D02*
X48250000Y-25800000D01*
D11*
%TO.C,R3*%
X31120000Y-2953641D02*
X31120000Y-2646359D01*
X31880000Y-2953641D02*
X31880000Y-2646359D01*
%TO.C,C20*%
X15892164Y-41640000D02*
X16107836Y-41640000D01*
X15892164Y-42360000D02*
X16107836Y-42360000D01*
%TO.C,R19*%
X51846359Y-62120000D02*
X52153641Y-62120000D01*
X51846359Y-62880000D02*
X52153641Y-62880000D01*
D12*
%TO.C,J7*%
X24500000Y-64500000D02*
X24500000Y-61500000D01*
X26500000Y-61500000D02*
X26500000Y-64500000D01*
D11*
%TO.C,R4*%
X32820000Y-2953641D02*
X32820000Y-2646359D01*
X33580000Y-2953641D02*
X33580000Y-2646359D01*
%TO.C,RN1*%
X43320000Y-26000000D02*
X43320000Y-27000000D01*
X46680000Y-26000000D02*
X46680000Y-27000000D01*
%TO.C,R26*%
X17120000Y-36153641D02*
X17120000Y-35846359D01*
X17880000Y-36153641D02*
X17880000Y-35846359D01*
%TO.C,R33*%
X73120000Y-13353641D02*
X73120000Y-13046359D01*
X73880000Y-13353641D02*
X73880000Y-13046359D01*
%TO.C,RN5*%
X43320000Y-10000000D02*
X43320000Y-11000000D01*
X46680000Y-10000000D02*
X46680000Y-11000000D01*
%TO.C,R105*%
X48846359Y-35120000D02*
X49153641Y-35120000D01*
X48846359Y-35880000D02*
X49153641Y-35880000D01*
D17*
%TO.C,Y1*%
X10822740Y-13051580D02*
X10822740Y-18248420D01*
X10822740Y-18248420D02*
X11152940Y-18248420D01*
X11152940Y-13051580D02*
X10822740Y-13051580D01*
X13891060Y-18248420D02*
X14221260Y-18248420D01*
X14221260Y-13051580D02*
X13891060Y-13051580D01*
X14221260Y-18248420D02*
X14221260Y-13051580D01*
D11*
%TO.C,U7*%
X24090000Y-1640000D02*
X25910000Y-1640000D01*
X24090000Y-1690000D02*
X24090000Y-1640000D01*
X24090000Y-3590000D02*
X24090000Y-2810000D01*
X24090000Y-4760000D02*
X24090000Y-4710000D01*
X25910000Y-1640000D02*
X25910000Y-2640000D01*
X25910000Y-3760000D02*
X25910000Y-4760000D01*
X25910000Y-4760000D02*
X24090000Y-4760000D01*
X23790000Y-3150000D02*
X23310000Y-3150000D01*
X23550000Y-2820000D01*
X23790000Y-3150000D01*
G36*
X23790000Y-3150000D02*
G01*
X23310000Y-3150000D01*
X23550000Y-2820000D01*
X23790000Y-3150000D01*
G37*
%TO.C,C16*%
X18892164Y-62640000D02*
X19107836Y-62640000D01*
X18892164Y-63360000D02*
X19107836Y-63360000D01*
%TO.C,RN7*%
X37620000Y-14000000D02*
X37620000Y-15000000D01*
X40980000Y-14000000D02*
X40980000Y-15000000D01*
%TO.C,C7*%
X61140000Y-57107836D02*
X61140000Y-56892164D01*
X61860000Y-57107836D02*
X61860000Y-56892164D01*
D12*
%TO.C,J4*%
X8100000Y-52500000D02*
X8100000Y-47500000D01*
X11300000Y-47500000D02*
X11300000Y-52500000D01*
D11*
%TO.C,RN8*%
X37620000Y-18000000D02*
X37620000Y-19000000D01*
X40980000Y-18000000D02*
X40980000Y-19000000D01*
%TO.C,C22*%
X18892164Y-45140000D02*
X19107836Y-45140000D01*
X18892164Y-45860000D02*
X19107836Y-45860000D01*
%TO.C,C24*%
X51640000Y-30607836D02*
X51640000Y-30392164D01*
X52360000Y-30607836D02*
X52360000Y-30392164D01*
%TO.C,C102*%
X15208164Y-13639000D02*
X15423836Y-13639000D01*
X15208164Y-14359000D02*
X15423836Y-14359000D01*
%TO.C,U5*%
X16300748Y-58390000D02*
X18110000Y-58390000D01*
X18110000Y-60610000D02*
X15890000Y-60610000D01*
X16010000Y-58380000D02*
X15870000Y-58190000D01*
X16150000Y-58190000D01*
X16010000Y-58380000D01*
G36*
X16010000Y-58380000D02*
G01*
X15870000Y-58190000D01*
X16150000Y-58190000D01*
X16010000Y-58380000D01*
G37*
%TO.C,C25*%
X53640000Y-30607836D02*
X53640000Y-30392164D01*
X54360000Y-30607836D02*
X54360000Y-30392164D01*
%TO.C,R9*%
X64120000Y-13153641D02*
X64120000Y-12846359D01*
X64880000Y-13153641D02*
X64880000Y-12846359D01*
%TO.C,R34*%
X74820000Y-13353641D02*
X74820000Y-13046359D01*
X75580000Y-13353641D02*
X75580000Y-13046359D01*
D12*
%TO.C,J6*%
X27000000Y-61905000D02*
X27000000Y-57095000D01*
X29000000Y-57095000D02*
X29000000Y-61905000D01*
D11*
%TO.C,R1*%
X27620000Y-2953641D02*
X27620000Y-2646359D01*
X28380000Y-2953641D02*
X28380000Y-2646359D01*
%TO.C,C5*%
X66092164Y-4740000D02*
X66307836Y-4740000D01*
X66092164Y-5460000D02*
X66307836Y-5460000D01*
%TO.C,R7*%
X64120000Y-9153641D02*
X64120000Y-8846359D01*
X64880000Y-9153641D02*
X64880000Y-8846359D01*
%TO.C,R8*%
X64120000Y-11153641D02*
X64120000Y-10846359D01*
X64880000Y-11153641D02*
X64880000Y-10846359D01*
%TO.C,R108*%
X46446359Y-35120000D02*
X46753641Y-35120000D01*
X46446359Y-35880000D02*
X46753641Y-35880000D01*
%TO.C,C6*%
X61140000Y-54607836D02*
X61140000Y-54392164D01*
X61860000Y-54607836D02*
X61860000Y-54392164D01*
%TO.C,R18*%
X59620000Y-62653641D02*
X59620000Y-62346359D01*
X60380000Y-62653641D02*
X60380000Y-62346359D01*
%TO.C,C12*%
X61140000Y-70107836D02*
X61140000Y-69892164D01*
X61860000Y-70107836D02*
X61860000Y-69892164D01*
%TO.C,R6*%
X64120000Y-7153641D02*
X64120000Y-6846359D01*
X64880000Y-7153641D02*
X64880000Y-6846359D01*
%TO.C,R22*%
X20846359Y-62620000D02*
X21153641Y-62620000D01*
X20846359Y-63380000D02*
X21153641Y-63380000D01*
D12*
%TO.C,J8*%
X29500000Y-61000000D02*
X29500000Y-58000000D01*
X31500000Y-58000000D02*
X31500000Y-61000000D01*
D11*
%TO.C,R13*%
X70820000Y-13353641D02*
X70820000Y-13046359D01*
X71580000Y-13353641D02*
X71580000Y-13046359D01*
%TO.C,C10*%
X61140000Y-66107836D02*
X61140000Y-65892164D01*
X61860000Y-66107836D02*
X61860000Y-65892164D01*
%TO.C,C11*%
X61140000Y-68107836D02*
X61140000Y-67892164D01*
X61860000Y-68107836D02*
X61860000Y-67892164D01*
%TO.C,C1*%
X34540000Y-2907836D02*
X34540000Y-2692164D01*
X35260000Y-2907836D02*
X35260000Y-2692164D01*
%TO.C,R31*%
X59846359Y-32620000D02*
X60153641Y-32620000D01*
X59846359Y-33380000D02*
X60153641Y-33380000D01*
%TO.C,C106*%
X30738748Y-33765000D02*
X31261252Y-33765000D01*
X30738748Y-35235000D02*
X31261252Y-35235000D01*
%TO.C,C8*%
X61140000Y-59107836D02*
X61140000Y-58892164D01*
X61860000Y-59107836D02*
X61860000Y-58892164D01*
%TO.C,R16*%
X53846359Y-53620000D02*
X54153641Y-53620000D01*
X53846359Y-54380000D02*
X54153641Y-54380000D01*
%TO.C,RN9*%
X37620000Y-22000000D02*
X37620000Y-23000000D01*
X40980000Y-22000000D02*
X40980000Y-23000000D01*
%TO.C,RN4*%
X43320000Y-14000000D02*
X43320000Y-15000000D01*
X46680000Y-14000000D02*
X46680000Y-15000000D01*
%TO.C,R106*%
X48846359Y-36820000D02*
X49153641Y-36820000D01*
X48846359Y-37580000D02*
X49153641Y-37580000D01*
%TO.C,R2*%
X29320000Y-2953641D02*
X29320000Y-2646359D01*
X30080000Y-2953641D02*
X30080000Y-2646359D01*
%TO.C,R12*%
X69120000Y-13353641D02*
X69120000Y-13046359D01*
X69880000Y-13353641D02*
X69880000Y-13046359D01*
%TO.C,C26*%
X53892164Y-37140000D02*
X54107836Y-37140000D01*
X53892164Y-37860000D02*
X54107836Y-37860000D01*
%TO.C,RN2*%
X43320000Y-22000000D02*
X43320000Y-23000000D01*
X46680000Y-22000000D02*
X46680000Y-23000000D01*
%TO.C,R5*%
X64120000Y-5153641D02*
X64120000Y-4846359D01*
X64880000Y-5153641D02*
X64880000Y-4846359D01*
D12*
%TO.C,J3*%
X57000000Y-35000000D02*
X62000000Y-35000000D01*
X62000000Y-38000000D02*
X57000000Y-38000000D01*
D11*
%TO.C,C103*%
X15208164Y-16941000D02*
X15423836Y-16941000D01*
X15208164Y-17661000D02*
X15423836Y-17661000D01*
%TO.C,R14*%
X55846359Y-61120000D02*
X56153641Y-61120000D01*
X55846359Y-61880000D02*
X56153641Y-61880000D01*
%TO.C,R11*%
X73620000Y-3353641D02*
X73620000Y-3046359D01*
X74380000Y-3353641D02*
X74380000Y-3046359D01*
D17*
%TO.C,U1*%
X16461540Y-11461540D02*
X16461540Y-32459720D01*
X16461540Y-32459720D02*
X37459720Y-32459720D01*
X37459720Y-11461540D02*
X16461540Y-11461540D01*
X37459720Y-32459720D02*
X37459720Y-11461540D01*
%TD*%
M02*
