%TF.GenerationSoftware,KiCad,Pcbnew,9.0.8+dfsg-1*%
%TF.CreationDate,2026-08-16T01:26:38-07:00*%
%TF.ProjectId,pokeboy-hw,706f6b65-626f-4792-9d68-772e6b696361,rev?*%
%TF.SameCoordinates,Original*%
%TF.FileFunction,Drillmap*%
%TF.FilePolarity,Positive*%
%FSLAX45Y45*%
G04 Gerber Fmt 4.5, Leading zero omitted, Abs format (unit mm)*
G04 Created by KiCad (PCBNEW 9.0.8+dfsg-1) date 2026-08-16 01:26:38*
%MOMM*%
%LPD*%
G01*
G04 APERTURE LIST*
%ADD10C,0.100000*%
%ADD11C,0.200000*%
G04 APERTURE END LIST*
D10*
X20000Y-6400000D02*
X820000Y-6400000D01*
X20000Y-11180000D02*
X20000Y-6400000D01*
X820000Y-20000D02*
X7960000Y-20000D01*
X820000Y-6400000D02*
X820000Y-20000D01*
X1620000Y-11180000D02*
X20000Y-11180000D01*
X1620000Y-11960000D02*
X1620000Y-11180000D01*
X2390000Y-4790000D02*
X3210000Y-4790000D01*
X2390000Y-5610000D02*
X2390000Y-4790000D01*
X3190000Y-6390000D02*
X4810000Y-6390000D01*
X3190000Y-7210000D02*
X3190000Y-6390000D01*
X3210000Y-4790000D02*
X3210000Y-5610000D01*
X3210000Y-5610000D02*
X2390000Y-5610000D01*
X3990000Y-4790000D02*
X4810000Y-4790000D01*
X3990000Y-5610000D02*
X3990000Y-4790000D01*
X4810000Y-4790000D02*
X4810000Y-5610000D01*
X4810000Y-5610000D02*
X3990000Y-5610000D01*
X4810000Y-6390000D02*
X4810000Y-7210000D01*
X4810000Y-7210000D02*
X3190000Y-7210000D01*
X5560000Y-10360000D02*
X5560000Y-11960000D01*
X5560000Y-11960000D02*
X1620000Y-11960000D01*
X6360000Y-1580000D02*
X6360000Y-6400000D01*
X6360000Y-6400000D02*
X7160000Y-6400000D01*
X7160000Y-6400000D02*
X7160000Y-10360000D01*
X7160000Y-10360000D02*
X5560000Y-10360000D01*
X7960000Y-20000D02*
X7960000Y-1580000D01*
X7960000Y-1580000D02*
X6360000Y-1580000D01*
D11*
X275777Y-12276484D02*
X275777Y-12076484D01*
X275777Y-12076484D02*
X323396Y-12076484D01*
X323396Y-12076484D02*
X351967Y-12086008D01*
X351967Y-12086008D02*
X371015Y-12105055D01*
X371015Y-12105055D02*
X380539Y-12124103D01*
X380539Y-12124103D02*
X390062Y-12162198D01*
X390062Y-12162198D02*
X390062Y-12190769D01*
X390062Y-12190769D02*
X380539Y-12228865D01*
X380539Y-12228865D02*
X371015Y-12247912D01*
X371015Y-12247912D02*
X351967Y-12266960D01*
X351967Y-12266960D02*
X323396Y-12276484D01*
X323396Y-12276484D02*
X275777Y-12276484D01*
X475777Y-12276484D02*
X475777Y-12143150D01*
X475777Y-12181246D02*
X485301Y-12162198D01*
X485301Y-12162198D02*
X494824Y-12152674D01*
X494824Y-12152674D02*
X513872Y-12143150D01*
X513872Y-12143150D02*
X532920Y-12143150D01*
X599586Y-12276484D02*
X599586Y-12143150D01*
X599586Y-12076484D02*
X590063Y-12086008D01*
X590063Y-12086008D02*
X599586Y-12095531D01*
X599586Y-12095531D02*
X609110Y-12086008D01*
X609110Y-12086008D02*
X599586Y-12076484D01*
X599586Y-12076484D02*
X599586Y-12095531D01*
X723396Y-12276484D02*
X704348Y-12266960D01*
X704348Y-12266960D02*
X694824Y-12247912D01*
X694824Y-12247912D02*
X694824Y-12076484D01*
X828158Y-12276484D02*
X809110Y-12266960D01*
X809110Y-12266960D02*
X799586Y-12247912D01*
X799586Y-12247912D02*
X799586Y-12076484D01*
X1056729Y-12276484D02*
X1056729Y-12076484D01*
X1056729Y-12076484D02*
X1123396Y-12219341D01*
X1123396Y-12219341D02*
X1190063Y-12076484D01*
X1190063Y-12076484D02*
X1190063Y-12276484D01*
X1371015Y-12276484D02*
X1371015Y-12171722D01*
X1371015Y-12171722D02*
X1361491Y-12152674D01*
X1361491Y-12152674D02*
X1342444Y-12143150D01*
X1342444Y-12143150D02*
X1304348Y-12143150D01*
X1304348Y-12143150D02*
X1285301Y-12152674D01*
X1371015Y-12266960D02*
X1351967Y-12276484D01*
X1351967Y-12276484D02*
X1304348Y-12276484D01*
X1304348Y-12276484D02*
X1285301Y-12266960D01*
X1285301Y-12266960D02*
X1275777Y-12247912D01*
X1275777Y-12247912D02*
X1275777Y-12228865D01*
X1275777Y-12228865D02*
X1285301Y-12209817D01*
X1285301Y-12209817D02*
X1304348Y-12200293D01*
X1304348Y-12200293D02*
X1351967Y-12200293D01*
X1351967Y-12200293D02*
X1371015Y-12190769D01*
X1466253Y-12143150D02*
X1466253Y-12343150D01*
X1466253Y-12152674D02*
X1485301Y-12143150D01*
X1485301Y-12143150D02*
X1523396Y-12143150D01*
X1523396Y-12143150D02*
X1542443Y-12152674D01*
X1542443Y-12152674D02*
X1551967Y-12162198D01*
X1551967Y-12162198D02*
X1561491Y-12181246D01*
X1561491Y-12181246D02*
X1561491Y-12238388D01*
X1561491Y-12238388D02*
X1551967Y-12257436D01*
X1551967Y-12257436D02*
X1542443Y-12266960D01*
X1542443Y-12266960D02*
X1523396Y-12276484D01*
X1523396Y-12276484D02*
X1485301Y-12276484D01*
X1485301Y-12276484D02*
X1466253Y-12266960D01*
X1647205Y-12257436D02*
X1656729Y-12266960D01*
X1656729Y-12266960D02*
X1647205Y-12276484D01*
X1647205Y-12276484D02*
X1637682Y-12266960D01*
X1637682Y-12266960D02*
X1647205Y-12257436D01*
X1647205Y-12257436D02*
X1647205Y-12276484D01*
X1647205Y-12152674D02*
X1656729Y-12162198D01*
X1656729Y-12162198D02*
X1647205Y-12171722D01*
X1647205Y-12171722D02*
X1637682Y-12162198D01*
X1637682Y-12162198D02*
X1647205Y-12152674D01*
X1647205Y-12152674D02*
X1647205Y-12171722D01*
M02*
