%TF.GenerationSoftware,KiCad,Pcbnew,9.0.8+dfsg-1*%
%TF.CreationDate,2026-08-16T01:26:38-07:00*%
%TF.ProjectId,pokeboy-hw,706f6b65-626f-4792-9d68-772e6b696361,rev?*%
%TF.SameCoordinates,Original*%
%TF.FileFunction,Profile,NP*%
%FSLAX46Y46*%
G04 Gerber Fmt 4.6, Leading zero omitted, Abs format (unit mm)*
G04 Created by KiCad (PCBNEW 9.0.8+dfsg-1) date 2026-08-16 01:26:38*
%MOMM*%
%LPD*%
G01*
G04 APERTURE LIST*
%TA.AperFunction,Profile*%
%ADD10C,0.100000*%
%TD*%
G04 APERTURE END LIST*
D10*
X200000Y-64000000D02*
X8200000Y-64000000D01*
X200000Y-111800000D02*
X200000Y-64000000D01*
X8200000Y-200000D02*
X79600000Y-200000D01*
X8200000Y-64000000D02*
X8200000Y-200000D01*
X16200000Y-111800000D02*
X200000Y-111800000D01*
X16200000Y-119600000D02*
X16200000Y-111800000D01*
X23900000Y-47900000D02*
X32100000Y-47900000D01*
X23900000Y-56100000D02*
X23900000Y-47900000D01*
X31900000Y-63900000D02*
X48100000Y-63900000D01*
X31900000Y-72100000D02*
X31900000Y-63900000D01*
X32100000Y-47900000D02*
X32100000Y-56100000D01*
X32100000Y-56100000D02*
X23900000Y-56100000D01*
X39900000Y-47900000D02*
X48100000Y-47900000D01*
X39900000Y-56100000D02*
X39900000Y-47900000D01*
X48100000Y-47900000D02*
X48100000Y-56100000D01*
X48100000Y-56100000D02*
X39900000Y-56100000D01*
X48100000Y-63900000D02*
X48100000Y-72100000D01*
X48100000Y-72100000D02*
X31900000Y-72100000D01*
X55600000Y-103600000D02*
X55600000Y-119600000D01*
X55600000Y-119600000D02*
X16200000Y-119600000D01*
X63600000Y-15800000D02*
X63600000Y-64000000D01*
X63600000Y-64000000D02*
X71600000Y-64000000D01*
X71600000Y-64000000D02*
X71600000Y-103600000D01*
X71600000Y-103600000D02*
X55600000Y-103600000D01*
X79600000Y-200000D02*
X79600000Y-15800000D01*
X79600000Y-15800000D02*
X63600000Y-15800000D01*
M02*
