%TF.GenerationSoftware,KiCad,Pcbnew,9.0.8+dfsg-1*%
%TF.CreationDate,2026-08-18T00:48:44-07:00*%
%TF.ProjectId,pokeboy-hw,706f6b65-626f-4792-9d68-772e6b696361,rev?*%
%TF.SameCoordinates,Original*%
%TF.FileFunction,Soldermask,Bot*%
%TF.FilePolarity,Negative*%
%FSLAX46Y46*%
G04 Gerber Fmt 4.6, Leading zero omitted, Abs format (unit mm)*
G04 Created by KiCad (PCBNEW 9.0.8+dfsg-1) date 2026-08-18 00:48:44*
%MOMM*%
%LPD*%
G01*
G04 APERTURE LIST*
G04 APERTURE END LIST*
G36*
X15069471Y-2892633D02*
G01*
X15078316Y-2892633D01*
X15103794Y-2899460D01*
X15174137Y-2913451D01*
X15207342Y-2927205D01*
X15229610Y-2933172D01*
X15249576Y-2944699D01*
X15282779Y-2958453D01*
X15342414Y-2998299D01*
X15365257Y-3011488D01*
X15371509Y-3017740D01*
X15380559Y-3023787D01*
X15463712Y-3106940D01*
X15469758Y-3115989D01*
X15476012Y-3122243D01*
X15489202Y-3145089D01*
X15529046Y-3204720D01*
X15542797Y-3237919D01*
X15554328Y-3257890D01*
X15560295Y-3280161D01*
X15574048Y-3313362D01*
X15588037Y-3383697D01*
X15594867Y-3409184D01*
X15595731Y-3422379D01*
X15597110Y-3429308D01*
X15599879Y-3485654D01*
X15600000Y-3487500D01*
X15600000Y-4187500D01*
X15599878Y-4189348D01*
X15597110Y-4245691D01*
X15595731Y-4252619D01*
X15594867Y-4265816D01*
X15588037Y-4291305D01*
X15574048Y-4361637D01*
X15560296Y-4394835D01*
X15554328Y-4417110D01*
X15542796Y-4437083D01*
X15529046Y-4470279D01*
X15489206Y-4529903D01*
X15476012Y-4552757D01*
X15469756Y-4559012D01*
X15463712Y-4568059D01*
X15380559Y-4651212D01*
X15371512Y-4657256D01*
X15365257Y-4663512D01*
X15342403Y-4676706D01*
X15282779Y-4716546D01*
X15249583Y-4730296D01*
X15229610Y-4741828D01*
X15207335Y-4747796D01*
X15174137Y-4761548D01*
X15103800Y-4775538D01*
X15078316Y-4782367D01*
X15069470Y-4782367D01*
X15058797Y-4784490D01*
X14941203Y-4784490D01*
X14930530Y-4782367D01*
X14921684Y-4782367D01*
X14896200Y-4775538D01*
X14825862Y-4761548D01*
X14792661Y-4747795D01*
X14770390Y-4741828D01*
X14750419Y-4730297D01*
X14717220Y-4716546D01*
X14657589Y-4676702D01*
X14634743Y-4663512D01*
X14628489Y-4657258D01*
X14619440Y-4651212D01*
X14536287Y-4568059D01*
X14530240Y-4559009D01*
X14523988Y-4552757D01*
X14510799Y-4529914D01*
X14470953Y-4470279D01*
X14457199Y-4437076D01*
X14445672Y-4417110D01*
X14439705Y-4394842D01*
X14425951Y-4361637D01*
X14411958Y-4291290D01*
X14405133Y-4265816D01*
X14404268Y-4252626D01*
X14402889Y-4245691D01*
X14400121Y-4189346D01*
X14400000Y-4187500D01*
X14400000Y-3487500D01*
X14400120Y-3485656D01*
X14402889Y-3429308D01*
X14404268Y-3422371D01*
X14405133Y-3409184D01*
X14411958Y-3383712D01*
X14425951Y-3313362D01*
X14439706Y-3280154D01*
X14445672Y-3257890D01*
X14457198Y-3237925D01*
X14470953Y-3204720D01*
X14510804Y-3145078D01*
X14523988Y-3122243D01*
X14530238Y-3115992D01*
X14536287Y-3106940D01*
X14619440Y-3023787D01*
X14628492Y-3017738D01*
X14634743Y-3011488D01*
X14657578Y-2998304D01*
X14717220Y-2958453D01*
X14750425Y-2944698D01*
X14770390Y-2933172D01*
X14792654Y-2927206D01*
X14825862Y-2913451D01*
X14896206Y-2899459D01*
X14921684Y-2892633D01*
X14930529Y-2892633D01*
X14941203Y-2890510D01*
X15058797Y-2890510D01*
X15069471Y-2892633D01*
G37*
G36*
X22069471Y-2892633D02*
G01*
X22078316Y-2892633D01*
X22103794Y-2899460D01*
X22174137Y-2913451D01*
X22207342Y-2927205D01*
X22229610Y-2933172D01*
X22249576Y-2944699D01*
X22282779Y-2958453D01*
X22342414Y-2998299D01*
X22365257Y-3011488D01*
X22371509Y-3017740D01*
X22380559Y-3023787D01*
X22463712Y-3106940D01*
X22469758Y-3115989D01*
X22476012Y-3122243D01*
X22489202Y-3145089D01*
X22529046Y-3204720D01*
X22542797Y-3237919D01*
X22554328Y-3257890D01*
X22560295Y-3280161D01*
X22574048Y-3313362D01*
X22588037Y-3383697D01*
X22594867Y-3409184D01*
X22595731Y-3422379D01*
X22597110Y-3429308D01*
X22599879Y-3485654D01*
X22600000Y-3487500D01*
X22600000Y-4187500D01*
X22599878Y-4189348D01*
X22597110Y-4245691D01*
X22595731Y-4252619D01*
X22594867Y-4265816D01*
X22588037Y-4291305D01*
X22574048Y-4361637D01*
X22560296Y-4394835D01*
X22554328Y-4417110D01*
X22542796Y-4437083D01*
X22529046Y-4470279D01*
X22489206Y-4529903D01*
X22476012Y-4552757D01*
X22469756Y-4559012D01*
X22463712Y-4568059D01*
X22380559Y-4651212D01*
X22371512Y-4657256D01*
X22365257Y-4663512D01*
X22342403Y-4676706D01*
X22282779Y-4716546D01*
X22249583Y-4730296D01*
X22229610Y-4741828D01*
X22207335Y-4747796D01*
X22174137Y-4761548D01*
X22103800Y-4775538D01*
X22078316Y-4782367D01*
X22069470Y-4782367D01*
X22058797Y-4784490D01*
X21941203Y-4784490D01*
X21930530Y-4782367D01*
X21921684Y-4782367D01*
X21896200Y-4775538D01*
X21825862Y-4761548D01*
X21792661Y-4747795D01*
X21770390Y-4741828D01*
X21750419Y-4730297D01*
X21717220Y-4716546D01*
X21657589Y-4676702D01*
X21634743Y-4663512D01*
X21628489Y-4657258D01*
X21619440Y-4651212D01*
X21536287Y-4568059D01*
X21530240Y-4559009D01*
X21523988Y-4552757D01*
X21510799Y-4529914D01*
X21470953Y-4470279D01*
X21457199Y-4437076D01*
X21445672Y-4417110D01*
X21439705Y-4394842D01*
X21425951Y-4361637D01*
X21411958Y-4291290D01*
X21405133Y-4265816D01*
X21404268Y-4252626D01*
X21402889Y-4245691D01*
X21400121Y-4189346D01*
X21400000Y-4187500D01*
X21400000Y-3487500D01*
X21400120Y-3485656D01*
X21402889Y-3429308D01*
X21404268Y-3422371D01*
X21405133Y-3409184D01*
X21411958Y-3383712D01*
X21425951Y-3313362D01*
X21439706Y-3280154D01*
X21445672Y-3257890D01*
X21457198Y-3237925D01*
X21470953Y-3204720D01*
X21510804Y-3145078D01*
X21523988Y-3122243D01*
X21530238Y-3115992D01*
X21536287Y-3106940D01*
X21619440Y-3023787D01*
X21628492Y-3017738D01*
X21634743Y-3011488D01*
X21657578Y-2998304D01*
X21717220Y-2958453D01*
X21750425Y-2944698D01*
X21770390Y-2933172D01*
X21792654Y-2927206D01*
X21825862Y-2913451D01*
X21896206Y-2899459D01*
X21921684Y-2892633D01*
X21930529Y-2892633D01*
X21941203Y-2890510D01*
X22058797Y-2890510D01*
X22069471Y-2892633D01*
G37*
G36*
X16210456Y-443718D02*
G01*
X16341763Y-498107D01*
X16459935Y-577067D01*
X16560433Y-677565D01*
X16639393Y-795737D01*
X16693782Y-927044D01*
X16721509Y-1066438D01*
X16721509Y-1208562D01*
X16693782Y-1347956D01*
X16639393Y-1479263D01*
X16560433Y-1597435D01*
X16459935Y-1697933D01*
X16341763Y-1776893D01*
X16210456Y-1831282D01*
X16071062Y-1859009D01*
X15928938Y-1859009D01*
X15789544Y-1831282D01*
X15658237Y-1776893D01*
X15540065Y-1697933D01*
X15439567Y-1597435D01*
X15360607Y-1479263D01*
X15306218Y-1347956D01*
X15278491Y-1208562D01*
X15278491Y-1066438D01*
X15306218Y-927044D01*
X15360607Y-795737D01*
X15439567Y-677565D01*
X15540065Y-577067D01*
X15658237Y-498107D01*
X15789544Y-443718D01*
X15928938Y-415991D01*
X16071062Y-415991D01*
X16210456Y-443718D01*
G37*
G36*
X21210456Y-443718D02*
G01*
X21341763Y-498107D01*
X21459935Y-577067D01*
X21560433Y-677565D01*
X21639393Y-795737D01*
X21693782Y-927044D01*
X21721509Y-1066438D01*
X21721509Y-1208562D01*
X21693782Y-1347956D01*
X21639393Y-1479263D01*
X21560433Y-1597435D01*
X21459935Y-1697933D01*
X21341763Y-1776893D01*
X21210456Y-1831282D01*
X21071062Y-1859009D01*
X20928938Y-1859009D01*
X20789544Y-1831282D01*
X20658237Y-1776893D01*
X20540065Y-1697933D01*
X20439567Y-1597435D01*
X20360607Y-1479263D01*
X20306218Y-1347956D01*
X20278491Y-1208562D01*
X20278491Y-1066438D01*
X20306218Y-927044D01*
X20360607Y-795737D01*
X20439567Y-677565D01*
X20540065Y-577067D01*
X20658237Y-498107D01*
X20789544Y-443718D01*
X20928938Y-415991D01*
X21071062Y-415991D01*
X21210456Y-443718D01*
G37*
M02*
